<svg xmlns="http://www.w3.org/2000/svg" xmlns:xlink="http://www.w3.org/1999/xlink" width="1050" zoomAndPan="magnify" viewBox="0 0 787.5 563.249982" height="751" preserveAspectRatio="xMidYMid meet" version="1.0"><defs><clipPath id="id1"><path d="M 97.269531 14.070312 L 682 14.070312 L 682 555.171875 L 97.269531 555.171875 Z M 97.269531 14.070312 " clip-rule="nonzero"/></clipPath><clipPath id="id2"><path d="M 146.214844 14.070312 L 677 14.070312 L 677 555.171875 L 146.214844 555.171875 Z M 146.214844 14.070312 " clip-rule="nonzero"/></clipPath><clipPath id="id3"><path d="M 97.269531 7.554688 L 666 7.554688 L 666 537 L 97.269531 537 Z M 97.269531 7.554688 " clip-rule="nonzero"/></clipPath><clipPath id="id4"><path d="M 140 16 L 682 16 L 682 555.171875 L 140 555.171875 Z M 140 16 " clip-rule="nonzero"/></clipPath><clipPath id="id5"><path d="M 207 152.175781 L 690.09375 152.175781 L 690.09375 538.867188 L 207 538.867188 Z M 207 152.175781 " clip-rule="nonzero"/></clipPath></defs><g clip-path="url(#id1)"><path fill="#fc4418" d="M 614.179688 437.179688 L 592.425781 404.453125 L 584.027344 404.453125 C 575.511719 415.816406 566.527344 426.773438 557.15625 437.179688 Z M 185.527344 69.050781 C 185.527344 69.550781 185.574219 70.046875 185.640625 70.527344 C 191.042969 66.855469 196.640625 63.371094 202.40625 60.082031 C 200.675781 58.910156 198.59375 58.222656 196.347656 58.222656 C 190.382812 58.222656 185.527344 63.078125 185.527344 69.050781 Z M 681.816406 456.742188 L 656.589844 456.742188 L 668.011719 555.171875 L 649.6875 555.171875 L 638.261719 456.742188 L 573.65625 456.742188 L 562.234375 555.171875 L 543.902344 555.171875 L 555.332031 456.742188 L 538.417969 456.742188 C 489.554688 504.613281 432.355469 536.878906 376.289062 536.878906 C 351.230469 536.878906 326.40625 531.996094 302.492188 523.195312 L 306.210938 555.171875 L 287.878906 555.171875 L 283.238281 515.179688 C 257.386719 503.15625 232.898438 486.636719 210.675781 466.875 L 200.425781 555.171875 L 182.101562 555.171875 L 193.523438 456.742188 L 169.683594 456.742188 L 169.683594 437.179688 L 181.105469 437.179688 C 130.363281 379.757812 97.269531 305.144531 97.269531 234.371094 C 97.269531 168.367188 126.050781 117.238281 171.085938 81.265625 C 170.308594 79.65625 169.679688 77.984375 169.222656 76.25 L 160.984375 74.4375 L 160.984375 63.667969 L 169.222656 61.851562 C 169.867188 59.429688 170.820312 57.113281 172.078125 54.953125 L 167.53125 47.839844 L 175.148438 40.226562 L 182.257812 44.769531 C 184.421875 43.511719 186.730469 42.554688 189.152344 41.917969 L 190.964844 33.667969 L 201.734375 33.667969 L 203.542969 41.917969 C 205.964844 42.554688 208.277344 43.511719 210.441406 44.769531 L 217.550781 40.226562 L 225.160156 47.839844 L 224.609375 48.710938 C 228.703125 46.835938 232.863281 45.046875 237.082031 43.339844 L 237.082031 33.667969 L 264.589844 33.667969 C 286.726562 26.976562 310.085938 22.386719 334.035156 19.917969 C 334.007812 19.710938 333.96875 19.507812 333.96875 19.292969 C 333.96875 16.792969 336.007812 14.757812 338.507812 14.757812 C 340.941406 14.757812 342.910156 16.679688 343.023438 19.082031 C 354.03125 18.195312 365.132812 17.75 376.289062 17.75 C 519.578125 17.75 670.289062 39.410156 670.289062 182.765625 C 670.289062 248.929688 638.183594 329.453125 589.519531 396.988281 L 627.550781 396.988281 L 654.265625 437.179688 L 681.816406 437.179688 Z M 164.101562 23.835938 C 166.601562 23.835938 168.636719 21.800781 168.636719 19.292969 C 168.636719 16.792969 166.601562 14.757812 164.101562 14.757812 C 161.597656 14.757812 159.5625 16.792969 159.5625 19.292969 C 159.5625 21.800781 161.597656 23.835938 164.101562 23.835938 Z M 512.367188 19.292969 C 512.367188 16.792969 514.40625 14.757812 516.90625 14.757812 C 519.414062 14.757812 521.445312 16.792969 521.445312 19.292969 C 521.445312 21.800781 519.414062 23.835938 516.90625 23.835938 C 514.40625 23.835938 512.367188 21.800781 512.367188 19.292969 " fill-opacity="1" fill-rule="nonzero"/></g><g clip-path="url(#id2)"><path fill="#642213" d="M 504.476562 22.578125 C 506.289062 22.578125 507.761719 21.109375 507.761719 19.292969 C 507.761719 17.484375 506.289062 16.011719 504.476562 16.011719 C 502.664062 16.011719 501.191406 17.484375 501.191406 19.292969 C 501.191406 21.109375 502.664062 22.578125 504.476562 22.578125 Z M 578.75 120.878906 L 594.03125 120.878906 L 594.03125 117.113281 L 578.75 117.113281 Z M 572.816406 70.050781 L 551.988281 57.605469 L 551.988281 82.503906 Z M 624.863281 104.429688 L 499.941406 104.429688 L 499.941406 39.152344 L 624.863281 39.152344 Z M 600.683594 112.925781 L 590.042969 112.925781 L 590.042969 116.691406 L 600.683594 116.691406 Z M 578.75 112.925781 L 578.75 116.691406 L 589.390625 116.691406 L 589.390625 112.925781 Z M 600.683594 108.742188 L 578.75 108.742188 L 578.75 112.507812 L 600.683594 112.507812 Z M 249.414062 121.089844 L 236.644531 121.089844 L 236.644531 122.347656 L 249.414062 122.347656 Z M 256.066406 118.160156 L 256.066406 116.902344 L 247.9375 116.902344 L 247.9375 118.160156 Z M 244.769531 116.902344 L 236.644531 116.902344 L 236.644531 118.160156 L 244.769531 118.160156 Z M 256.066406 112.71875 L 236.644531 112.71875 L 236.644531 113.976562 L 256.066406 113.976562 Z M 169.289062 121.089844 L 156.515625 121.089844 L 156.515625 122.347656 L 169.289062 122.347656 Z M 175.941406 118.160156 L 175.941406 116.902344 L 167.8125 116.902344 L 167.8125 118.160156 Z M 164.644531 116.902344 L 156.515625 116.902344 L 156.515625 118.160156 L 164.644531 118.160156 Z M 175.941406 112.71875 L 156.515625 112.71875 L 156.515625 113.976562 L 175.941406 113.976562 Z M 260.679688 82.105469 L 238.339844 82.105469 L 238.339844 89.929688 L 260.679688 89.929688 Z M 260.679688 47.984375 L 238.339844 47.984375 L 238.339844 55.800781 L 260.679688 55.800781 Z M 151.667969 22.578125 C 153.476562 22.578125 154.949219 21.109375 154.949219 19.292969 C 154.949219 17.484375 153.476562 16.011719 151.667969 16.011719 C 149.855469 16.011719 148.382812 17.484375 148.382812 19.292969 C 148.382812 21.109375 149.855469 22.578125 151.667969 22.578125 Z M 177.660156 69.050781 C 177.660156 79.359375 186.042969 87.746094 196.347656 87.746094 C 206.65625 87.746094 215.039062 79.359375 215.039062 69.050781 C 215.039062 58.742188 206.65625 50.351562 196.347656 50.351562 C 186.042969 50.351562 177.660156 58.742188 177.660156 69.050781 Z M 176.40625 69.050781 C 176.40625 58.046875 185.351562 49.097656 196.347656 49.097656 C 207.347656 49.097656 216.292969 58.046875 216.292969 69.050781 C 216.292969 80.050781 207.347656 89.003906 196.347656 89.003906 C 185.351562 89.003906 176.40625 80.050781 176.40625 69.050781 Z M 414.53125 181.6875 C 413.507812 181.6875 412.570312 182.523438 412.441406 183.546875 C 412.3125 184.570312 413.042969 185.402344 414.066406 185.402344 C 415.089844 185.402344 416.027344 184.570312 416.152344 183.546875 C 416.28125 182.523438 415.554688 181.6875 414.53125 181.6875 Z M 467.804688 182.285156 L 449.117188 182.285156 C 448.425781 182.285156 447.859375 182.851562 447.859375 183.542969 C 447.859375 184.238281 448.425781 184.796875 449.117188 184.796875 L 467.804688 184.796875 C 468.496094 184.796875 469.058594 184.238281 469.058594 183.542969 C 469.058594 182.851562 468.496094 182.285156 467.804688 182.285156 Z M 326.078125 23.835938 C 328.578125 23.835938 330.617188 21.800781 330.617188 19.292969 C 330.617188 16.792969 328.578125 14.757812 326.078125 14.757812 C 323.578125 14.757812 321.542969 16.792969 321.542969 19.292969 C 321.542969 21.800781 323.578125 23.835938 326.078125 23.835938 Z M 359.921875 108.285156 C 359.921875 110.265625 361.535156 111.882812 363.515625 111.882812 L 390.691406 111.882812 C 392.671875 111.882812 394.285156 110.265625 394.285156 108.285156 C 394.285156 106.304688 392.671875 104.695312 390.691406 104.695312 L 363.515625 104.695312 C 361.535156 104.695312 359.921875 106.304688 359.921875 108.285156 Z M 335.066406 90.03125 L 362.25 90.03125 C 364.230469 90.03125 365.84375 88.425781 365.84375 86.4375 C 365.84375 84.457031 364.230469 82.847656 362.25 82.847656 L 335.066406 82.847656 C 333.085938 82.847656 331.476562 84.457031 331.476562 86.4375 C 331.476562 88.425781 333.085938 90.03125 335.066406 90.03125 Z M 335.066406 68.183594 L 382.164062 68.183594 C 384.144531 68.183594 385.75 66.570312 385.75 64.589844 C 385.75 62.609375 384.144531 61 382.164062 61 L 335.066406 61 C 333.085938 61 331.476562 62.609375 331.476562 64.589844 C 331.476562 66.570312 333.085938 68.183594 335.066406 68.183594 Z M 391.242188 90.03125 L 400.855469 90.03125 C 402.835938 90.03125 404.441406 88.425781 404.441406 86.4375 C 404.441406 84.457031 402.835938 82.847656 400.855469 82.847656 L 391.242188 82.847656 C 389.261719 82.847656 387.648438 84.457031 387.648438 86.4375 C 387.648438 88.425781 389.261719 90.03125 391.242188 90.03125 Z M 381.441406 90.03125 C 383.421875 90.03125 385.035156 88.425781 385.035156 86.4375 C 385.035156 84.457031 383.421875 82.847656 381.441406 82.847656 L 371.832031 82.847656 C 369.851562 82.847656 368.242188 84.457031 368.242188 86.4375 C 368.242188 88.425781 369.851562 90.03125 371.832031 90.03125 Z M 335.066406 57.261719 L 344.679688 57.261719 C 346.660156 57.261719 348.273438 55.648438 348.273438 53.667969 C 348.273438 51.6875 346.660156 50.074219 344.679688 50.074219 L 335.066406 50.074219 C 333.085938 50.074219 331.476562 51.6875 331.476562 53.667969 C 331.476562 55.648438 333.085938 57.261719 335.066406 57.261719 Z M 335.066406 46.335938 L 367.4375 46.335938 C 369.417969 46.335938 371.03125 44.726562 371.03125 42.746094 C 371.03125 40.765625 369.417969 39.152344 367.4375 39.152344 L 335.066406 39.152344 C 333.085938 39.152344 331.476562 40.765625 331.476562 42.746094 C 331.476562 44.726562 333.085938 46.335938 335.066406 46.335938 Z M 404.972656 521.097656 L 176.558594 521.097656 C 167.148438 521.097656 159.523438 528.722656 159.523438 538.136719 C 159.523438 547.546875 167.148438 555.171875 176.558594 555.171875 L 404.972656 555.171875 C 414.378906 555.171875 422.003906 547.546875 422.003906 538.136719 C 422.003906 528.722656 414.378906 521.097656 404.972656 521.097656 Z M 668.496094 165.136719 C 668.496094 164.445312 667.933594 163.882812 667.242188 163.882812 L 605.539062 163.882812 C 604.84375 163.882812 604.285156 164.445312 604.285156 165.136719 C 604.285156 165.832031 604.84375 166.390625 605.539062 166.390625 L 667.242188 166.390625 C 667.933594 166.390625 668.496094 165.832031 668.496094 165.136719 Z M 639.503906 184.796875 L 650.085938 184.796875 C 650.777344 184.796875 651.339844 184.238281 651.339844 183.542969 C 651.339844 182.851562 650.777344 182.285156 650.085938 182.285156 L 639.503906 182.285156 C 638.8125 182.285156 638.25 182.851562 638.25 183.542969 C 638.25 184.238281 638.8125 184.796875 639.503906 184.796875 Z M 664.382812 191.746094 C 664.382812 191.054688 663.820312 190.492188 663.128906 190.492188 L 638.476562 190.492188 C 637.785156 190.492188 637.222656 191.054688 637.222656 191.746094 C 637.222656 192.4375 637.785156 193.003906 638.476562 193.003906 L 663.128906 193.003906 C 663.820312 193.003906 664.382812 192.4375 664.382812 191.746094 Z M 637.445312 201.207031 L 650.105469 201.207031 C 650.800781 201.207031 651.359375 200.644531 651.359375 199.953125 C 651.359375 199.253906 650.800781 198.695312 650.105469 198.695312 L 637.445312 198.695312 C 636.753906 198.695312 636.191406 199.253906 636.191406 199.953125 C 636.191406 200.644531 636.753906 201.207031 637.445312 201.207031 Z M 630.03125 253.546875 C 629.332031 253.546875 628.773438 254.105469 628.773438 254.800781 C 628.773438 255.492188 629.332031 256.054688 630.03125 256.054688 L 640.601562 256.054688 C 641.292969 256.054688 641.859375 255.492188 641.859375 254.800781 C 641.859375 254.105469 641.292969 253.546875 640.601562 253.546875 Z M 654.902344 263 C 654.902344 262.308594 654.339844 261.746094 653.648438 261.746094 L 628.996094 261.746094 C 628.304688 261.746094 627.742188 262.308594 627.742188 263 C 627.742188 263.699219 628.304688 264.257812 628.996094 264.257812 L 653.648438 264.257812 C 654.339844 264.257812 654.902344 263.699219 654.902344 263 Z M 641.878906 271.207031 C 641.878906 270.507812 641.320312 269.949219 640.625 269.949219 L 627.964844 269.949219 C 627.273438 269.949219 626.710938 270.507812 626.710938 271.207031 C 626.710938 271.898438 627.273438 272.460938 627.964844 272.460938 L 640.625 272.460938 C 641.320312 272.460938 641.878906 271.898438 641.878906 271.207031 Z M 614.867188 192.695312 C 614.867188 192 614.308594 191.4375 613.613281 191.4375 L 592.46875 191.4375 C 591.773438 191.4375 591.214844 192 591.214844 192.695312 C 591.214844 193.390625 591.773438 193.949219 592.46875 193.949219 L 613.613281 193.949219 C 614.308594 193.949219 614.867188 193.390625 614.867188 192.695312 Z M 604.277344 209.101562 C 604.277344 208.40625 603.71875 207.847656 603.023438 207.847656 L 584.546875 207.847656 C 583.855469 207.847656 583.292969 208.40625 583.292969 209.101562 C 583.292969 209.792969 583.855469 210.359375 584.546875 210.359375 L 603.023438 210.359375 C 603.71875 210.359375 604.277344 209.792969 604.277344 209.101562 Z M 599.863281 312.140625 C 599.863281 311.449219 599.304688 310.886719 598.605469 310.886719 L 565.339844 310.886719 C 564.648438 310.886719 564.085938 311.449219 564.085938 312.140625 C 564.085938 312.832031 564.648438 313.398438 565.339844 313.398438 L 598.605469 313.398438 C 599.304688 313.398438 599.863281 312.832031 599.863281 312.140625 Z M 505.484375 174.394531 L 413.734375 174.394531 C 410.265625 174.394531 407.105469 177.207031 406.667969 180.671875 L 405.160156 192.695312 L 509.460938 192.695312 L 510.972656 180.671875 C 511.40625 177.207031 508.953125 174.394531 505.484375 174.394531 Z M 494.972656 268.777344 C 494.972656 268.082031 494.40625 267.523438 493.714844 267.523438 L 482.519531 267.523438 C 481.828125 267.523438 481.265625 268.082031 481.265625 268.777344 C 481.265625 269.46875 481.828125 270.035156 482.519531 270.035156 L 493.714844 270.035156 C 494.40625 270.035156 494.972656 269.46875 494.972656 268.777344 Z M 467.964844 274.804688 C 467.964844 274.109375 467.402344 273.550781 466.710938 273.550781 L 456.222656 273.550781 C 455.53125 273.550781 454.96875 274.109375 454.96875 274.804688 C 454.96875 275.496094 455.53125 276.0625 456.222656 276.0625 L 466.710938 276.0625 C 467.402344 276.0625 467.964844 275.496094 467.964844 274.804688 Z M 446.261719 268.777344 C 446.261719 268.082031 445.699219 267.523438 445.007812 267.523438 L 433.8125 267.523438 C 433.117188 267.523438 432.558594 268.082031 432.558594 268.777344 C 432.558594 269.46875 433.117188 270.035156 433.8125 270.035156 L 445.007812 270.035156 C 445.699219 270.035156 446.261719 269.46875 446.261719 268.777344 Z M 415.773438 317.296875 L 406.210938 317.296875 C 404.894531 317.296875 403.691406 318.363281 403.527344 319.683594 C 403.363281 321 404.296875 322.066406 405.613281 322.066406 L 415.171875 322.066406 C 416.488281 322.066406 417.695312 321 417.859375 319.683594 C 418.023438 318.363281 417.089844 317.296875 415.773438 317.296875 Z M 405.957031 300.949219 C 406.980469 300.949219 407.914062 300.117188 408.046875 299.089844 C 408.171875 298.066406 407.449219 297.234375 406.421875 297.234375 C 405.398438 297.234375 404.460938 298.066406 404.335938 299.089844 C 404.203125 300.117188 404.933594 300.949219 405.957031 300.949219 Z M 404.859375 274.804688 C 404.859375 275.496094 405.417969 276.0625 406.113281 276.0625 L 413.816406 276.0625 C 414.507812 276.0625 415.070312 275.496094 415.070312 274.804688 C 415.070312 274.109375 414.507812 273.550781 413.816406 273.550781 L 406.113281 273.550781 C 405.417969 273.550781 404.859375 274.109375 404.859375 274.804688 Z M 454.132812 209.101562 C 454.132812 208.40625 453.570312 207.847656 452.875 207.847656 L 429.175781 207.847656 C 428.484375 207.847656 427.917969 208.40625 427.917969 209.101562 C 427.917969 209.792969 428.484375 210.359375 429.175781 210.359375 L 452.875 210.359375 C 453.570312 210.359375 454.132812 209.792969 454.132812 209.101562 Z M 534.433594 344.949219 C 534.433594 345.648438 534.992188 346.207031 535.6875 346.207031 L 583.675781 346.207031 C 584.371094 346.207031 584.929688 345.648438 584.929688 344.949219 C 584.929688 344.257812 584.371094 343.695312 583.675781 343.695312 L 535.6875 343.695312 C 534.992188 343.695312 534.433594 344.257812 534.433594 344.949219 Z M 545.316406 258.316406 C 545.316406 259.007812 545.878906 259.574219 546.570312 259.574219 L 559.226562 259.574219 C 559.917969 259.574219 560.484375 259.007812 560.484375 258.316406 C 560.484375 257.621094 559.917969 257.0625 559.226562 257.0625 L 546.570312 257.0625 C 545.878906 257.0625 545.316406 257.621094 545.316406 258.316406 Z M 549.4375 225.507812 C 549.4375 226.199219 550.003906 226.761719 550.695312 226.761719 L 565.945312 226.761719 C 566.640625 226.761719 567.199219 226.199219 567.199219 225.507812 C 567.199219 224.8125 566.640625 224.253906 565.945312 224.253906 L 550.695312 224.253906 C 550.003906 224.253906 549.4375 224.8125 549.4375 225.507812 Z M 552.527344 200.898438 C 552.527344 201.589844 553.089844 202.152344 553.78125 202.152344 L 564.355469 202.152344 C 565.050781 202.152344 565.609375 201.589844 565.609375 200.898438 C 565.609375 200.207031 565.050781 199.644531 564.355469 199.644531 L 553.78125 199.644531 C 553.089844 199.644531 552.527344 200.207031 552.527344 200.898438 Z M 594.546875 225.507812 C 594.546875 224.8125 593.984375 224.253906 593.292969 224.253906 L 571.429688 224.253906 C 570.738281 224.253906 570.175781 224.8125 570.175781 225.507812 C 570.175781 226.199219 570.738281 226.761719 571.429688 226.761719 L 593.292969 226.761719 C 593.984375 226.761719 594.546875 226.199219 594.546875 225.507812 Z M 597.871094 251.367188 C 598.566406 251.367188 599.125 250.808594 599.125 250.113281 C 599.125 249.421875 598.566406 248.855469 597.871094 248.855469 L 579.394531 248.855469 C 578.703125 248.855469 578.140625 249.421875 578.140625 250.113281 C 578.140625 250.808594 578.703125 251.367188 579.394531 251.367188 Z M 676.5 169.324219 L 657.066406 344.726562 C 656.492188 349.90625 652.125 353.8125 646.914062 353.8125 L 374.722656 353.8125 C 371.773438 353.8125 369.074219 352.605469 367.113281 350.414062 C 366.722656 349.976562 366.386719 349.511719 366.082031 349.03125 C 363.253906 369.125 349.710938 391.796875 349.710938 409.476562 C 349.710938 428.890625 364.503906 456.742188 364.503906 456.742188 C 364.503906 456.742188 359.253906 500.21875 305.960938 500.21875 C 286.695312 500.21875 273.09375 496.839844 266.101562 494.554688 C 262.46875 493.367188 259.789062 490.3125 258.972656 486.582031 C 252.777344 458.445312 256.976562 418.5 261.34375 404.453125 C 264.300781 394.960938 260.824219 346.328125 249.425781 311.660156 C 243.609375 293.976562 256.777344 275.777344 275.382812 275.777344 L 279.792969 261.746094 C 279.792969 261.746094 293.804688 254.96875 308.617188 257.980469 C 323.425781 260.996094 330.5 265.066406 336.019531 265.839844 L 332.441406 275.855469 C 338.546875 276.390625 344.007812 280.027344 346.804688 285.574219 C 352.828125 297.550781 362.410156 318.125 365.554688 333.582031 L 384.007812 167.074219 C 384.578125 161.890625 388.941406 157.980469 394.160156 157.980469 L 666.347656 157.980469 C 669.289062 157.980469 671.996094 159.191406 673.957031 161.382812 C 675.921875 163.578125 676.824219 166.398438 676.5 169.324219 Z M 421.554688 181.6875 C 420.535156 181.6875 419.601562 182.523438 419.46875 183.546875 C 419.339844 184.570312 420.066406 185.402344 421.089844 185.402344 C 422.113281 185.402344 423.050781 184.570312 423.179688 183.546875 C 423.3125 182.523438 422.585938 181.6875 421.554688 181.6875 Z M 428.585938 181.6875 C 427.5625 181.6875 426.625 182.523438 426.496094 183.546875 C 426.371094 184.570312 427.097656 185.402344 428.121094 185.402344 C 429.144531 185.402344 430.082031 184.570312 430.207031 183.546875 C 430.335938 182.523438 429.609375 181.6875 428.585938 181.6875 Z M 236.246094 175.957031 L 221.304688 175.957031 L 221.304688 208.554688 L 236.246094 208.554688 Z M 183.820312 208.554688 L 198.765625 208.554688 L 198.765625 180.472656 L 183.820312 180.472656 Z M 161.28125 208.554688 L 146.339844 208.554688 L 146.339844 190.265625 L 161.28125 190.265625 L 161.28125 208.554688 " fill-opacity="1" fill-rule="nonzero"/></g><g clip-path="url(#id3)"><path fill="#f1cbc2" d="M 196.347656 81.136719 C 203.019531 81.136719 208.425781 75.726562 208.425781 69.050781 C 208.425781 62.378906 203.019531 56.96875 196.347656 56.96875 C 189.679688 56.96875 184.273438 62.378906 184.273438 69.050781 C 184.273438 75.726562 189.679688 81.136719 196.347656 81.136719 Z M 160.816406 19.292969 C 160.816406 21.109375 162.289062 22.578125 164.101562 22.578125 C 165.914062 22.578125 167.378906 21.109375 167.378906 19.292969 C 167.378906 17.484375 165.914062 16.011719 164.101562 16.011719 C 162.289062 16.011719 160.816406 17.484375 160.816406 19.292969 Z M 169.136719 48.019531 L 173.558594 54.933594 C 172.046875 57.359375 170.925781 60.046875 170.253906 62.910156 L 162.238281 64.671875 L 162.238281 73.425781 L 170.253906 75.191406 C 170.925781 78.054688 172.046875 80.742188 173.558594 83.171875 L 169.136719 90.085938 L 175.320312 96.277344 L 182.238281 91.855469 C 184.664062 93.363281 187.347656 94.484375 190.210938 95.15625 L 191.972656 103.175781 L 200.726562 103.175781 L 202.488281 95.15625 C 205.347656 94.484375 208.035156 93.363281 210.460938 91.855469 L 217.378906 96.277344 L 223.5625 90.085938 L 219.140625 83.171875 C 220.648438 80.742188 221.773438 78.054688 222.445312 75.191406 L 230.460938 73.425781 L 230.460938 64.671875 L 222.445312 62.910156 C 221.773438 60.046875 220.648438 57.359375 219.140625 54.933594 L 223.5625 48.019531 L 217.378906 41.824219 L 210.460938 46.246094 C 208.035156 44.742188 205.347656 43.613281 202.488281 42.945312 L 200.726562 34.921875 L 191.972656 34.921875 L 190.210938 42.945312 C 187.347656 43.613281 184.664062 44.742188 182.238281 46.246094 L 175.320312 41.824219 Z M 238.339844 76.871094 L 272.472656 76.871094 L 272.472656 69.050781 L 238.339844 69.050781 Z M 238.339844 42.746094 L 272.472656 42.746094 L 272.472656 34.921875 L 238.339844 34.921875 Z M 202.644531 112.71875 L 183.222656 112.71875 L 183.222656 113.976562 L 202.644531 113.976562 Z M 202.644531 116.902344 L 194.519531 116.902344 L 194.519531 118.160156 L 202.644531 118.160156 Z M 191.351562 118.160156 L 191.351562 116.902344 L 183.222656 116.902344 L 183.222656 118.160156 Z M 196 121.089844 L 183.222656 121.089844 L 183.222656 122.347656 L 196 122.347656 Z M 287.503906 105.324219 L 310.203125 105.324219 L 310.203125 70.679688 L 287.503906 70.679688 Z M 287.503906 69.425781 L 310.203125 69.425781 L 310.203125 34.785156 L 287.503906 34.785156 Z M 322.796875 108.285156 C 322.796875 109.582031 323.84375 110.625 325.132812 110.625 L 325.351562 110.625 C 326.644531 110.625 327.691406 109.582031 327.691406 108.285156 C 327.691406 106.996094 326.644531 105.953125 325.351562 105.953125 L 325.132812 105.953125 C 323.84375 105.953125 322.796875 106.996094 322.796875 108.285156 Z M 322.796875 97.363281 C 322.796875 98.652344 323.84375 99.703125 325.132812 99.703125 L 325.351562 99.703125 C 326.644531 99.703125 327.691406 98.652344 327.691406 97.363281 C 327.691406 96.074219 326.644531 95.023438 325.351562 95.023438 L 325.132812 95.023438 C 323.84375 95.023438 322.796875 96.074219 322.796875 97.363281 Z M 322.796875 86.441406 C 322.796875 87.734375 323.84375 88.777344 325.132812 88.777344 L 325.351562 88.777344 C 326.644531 88.777344 327.691406 87.734375 327.691406 86.441406 C 327.691406 85.148438 326.644531 84.101562 325.351562 84.101562 L 325.132812 84.101562 C 323.84375 84.101562 322.796875 85.148438 322.796875 86.441406 Z M 322.796875 75.515625 C 322.796875 76.804688 323.84375 77.855469 325.132812 77.855469 L 325.351562 77.855469 C 326.644531 77.855469 327.691406 76.804688 327.691406 75.515625 C 327.691406 74.226562 326.644531 73.175781 325.351562 73.175781 L 325.132812 73.175781 C 323.84375 73.175781 322.796875 74.226562 322.796875 75.515625 Z M 322.796875 64.589844 C 322.796875 65.882812 323.84375 66.929688 325.132812 66.929688 L 325.351562 66.929688 C 326.644531 66.929688 327.691406 65.882812 327.691406 64.589844 C 327.691406 63.300781 326.644531 62.253906 325.351562 62.253906 L 325.132812 62.253906 C 323.84375 62.253906 322.796875 63.300781 322.796875 64.589844 Z M 322.796875 53.667969 C 322.796875 54.957031 323.84375 56.007812 325.132812 56.007812 L 325.351562 56.007812 C 326.644531 56.007812 327.691406 54.957031 327.691406 53.667969 C 327.691406 52.378906 326.644531 51.328125 325.351562 51.328125 L 325.132812 51.328125 C 323.84375 51.328125 322.796875 52.378906 322.796875 53.667969 Z M 322.796875 42.746094 C 322.796875 44.035156 323.84375 45.082031 325.132812 45.082031 L 325.351562 45.082031 C 326.644531 45.082031 327.691406 44.035156 327.691406 42.746094 C 327.691406 41.449219 326.644531 40.40625 325.351562 40.40625 L 325.132812 40.40625 C 323.84375 40.40625 322.796875 41.449219 322.796875 42.746094 Z M 322.796875 31.820312 C 322.796875 33.109375 323.84375 34.160156 325.132812 34.160156 L 325.351562 34.160156 C 326.644531 34.160156 327.691406 33.109375 327.691406 31.820312 C 327.691406 30.527344 326.644531 29.480469 325.351562 29.480469 L 325.132812 29.480469 C 323.84375 29.480469 322.796875 30.527344 322.796875 31.820312 Z M 322.796875 19.292969 C 322.796875 21.109375 324.261719 22.578125 326.078125 22.578125 C 327.890625 22.578125 329.363281 21.109375 329.363281 19.292969 C 329.363281 17.484375 327.890625 16.011719 326.078125 16.011719 C 324.261719 16.011719 322.796875 17.484375 322.796875 19.292969 Z M 332.730469 108.285156 C 332.730469 109.582031 333.777344 110.625 335.066406 110.625 L 354.886719 110.625 C 356.175781 110.625 357.226562 109.582031 357.226562 108.285156 C 357.226562 106.996094 356.175781 105.953125 354.886719 105.953125 L 335.066406 105.953125 C 333.777344 105.953125 332.730469 106.996094 332.730469 108.285156 Z M 332.730469 97.363281 C 332.730469 98.652344 333.777344 99.703125 335.066406 99.703125 L 377.476562 99.703125 C 378.765625 99.703125 379.816406 98.652344 379.816406 97.363281 C 379.816406 96.074219 378.765625 95.023438 377.476562 95.023438 L 335.066406 95.023438 C 333.777344 95.023438 332.730469 96.074219 332.730469 97.363281 Z M 332.730469 86.441406 C 332.730469 87.734375 333.777344 88.777344 335.066406 88.777344 L 362.25 88.777344 C 363.539062 88.777344 364.589844 87.734375 364.589844 86.441406 C 364.589844 85.148438 363.539062 84.101562 362.25 84.101562 L 335.066406 84.101562 C 333.777344 84.101562 332.730469 85.148438 332.730469 86.441406 Z M 332.730469 75.515625 C 332.730469 76.804688 333.777344 77.855469 335.066406 77.855469 L 370.953125 77.855469 C 372.242188 77.855469 373.285156 76.804688 373.285156 75.515625 C 373.285156 74.226562 372.242188 73.175781 370.953125 73.175781 L 335.066406 73.175781 C 333.777344 73.175781 332.730469 74.226562 332.730469 75.515625 Z M 332.730469 64.589844 C 332.730469 65.882812 333.777344 66.929688 335.066406 66.929688 L 382.164062 66.929688 C 383.453125 66.929688 384.496094 65.882812 384.496094 64.589844 C 384.496094 63.300781 383.453125 62.253906 382.164062 62.253906 L 335.066406 62.253906 C 333.777344 62.253906 332.730469 63.300781 332.730469 64.589844 Z M 332.730469 53.667969 C 332.730469 54.957031 333.777344 56.007812 335.066406 56.007812 L 344.679688 56.007812 C 345.96875 56.007812 347.019531 54.957031 347.019531 53.667969 C 347.019531 52.378906 345.96875 51.328125 344.679688 51.328125 L 335.066406 51.328125 C 333.777344 51.328125 332.730469 52.378906 332.730469 53.667969 Z M 332.730469 42.746094 C 332.730469 44.035156 333.777344 45.082031 335.066406 45.082031 L 367.4375 45.082031 C 368.726562 45.082031 369.773438 44.035156 369.773438 42.746094 C 369.773438 41.449219 368.726562 40.40625 367.4375 40.40625 L 335.066406 40.40625 C 333.777344 40.40625 332.730469 41.449219 332.730469 42.746094 Z M 332.730469 31.820312 C 332.730469 33.109375 333.777344 34.160156 335.066406 34.160156 L 349.929688 34.160156 C 351.21875 34.160156 352.265625 33.109375 352.265625 31.820312 C 352.265625 30.527344 351.21875 29.480469 349.929688 29.480469 L 335.066406 29.480469 C 333.777344 29.480469 332.730469 30.527344 332.730469 31.820312 Z M 335.226562 19.292969 C 335.226562 21.109375 336.695312 22.578125 338.507812 22.578125 C 340.324219 22.578125 341.792969 21.109375 341.792969 19.292969 C 341.792969 17.484375 340.324219 16.011719 338.507812 16.011719 C 336.695312 16.011719 335.226562 17.484375 335.226562 19.292969 Z M 403.359375 51.328125 L 356.265625 51.328125 C 354.976562 51.328125 353.929688 52.378906 353.929688 53.667969 C 353.929688 54.957031 354.976562 56.007812 356.265625 56.007812 L 403.359375 56.007812 C 404.648438 56.007812 405.699219 54.957031 405.699219 53.667969 C 405.699219 52.378906 404.648438 51.328125 403.359375 51.328125 Z M 404.359375 64.589844 C 404.359375 63.300781 403.316406 62.253906 402.027344 62.253906 L 392.414062 62.253906 C 391.125 62.253906 390.074219 63.300781 390.074219 64.589844 C 390.074219 65.882812 391.125 66.929688 392.414062 66.929688 L 402.027344 66.929688 C 403.316406 66.929688 404.359375 65.882812 404.359375 64.589844 Z M 403.1875 86.441406 C 403.1875 85.148438 402.144531 84.101562 400.855469 84.101562 L 391.242188 84.101562 C 389.953125 84.101562 388.902344 85.148438 388.902344 86.441406 C 388.902344 87.734375 389.953125 88.777344 391.242188 88.777344 L 400.855469 88.777344 C 402.144531 88.777344 403.1875 87.734375 403.1875 86.441406 Z M 383.78125 86.441406 C 383.78125 85.148438 382.734375 84.101562 381.441406 84.101562 L 371.828125 84.101562 C 370.539062 84.101562 369.496094 85.148438 369.496094 86.441406 C 369.496094 87.734375 370.539062 88.777344 371.828125 88.777344 L 381.441406 88.777344 C 382.734375 88.777344 383.78125 87.734375 383.78125 86.441406 Z M 393.03125 108.285156 C 393.03125 106.996094 391.988281 105.953125 390.691406 105.953125 L 363.515625 105.953125 C 362.222656 105.953125 361.175781 106.996094 361.175781 108.285156 C 361.175781 109.582031 362.222656 110.625 363.515625 110.625 L 390.691406 110.625 C 391.988281 110.625 393.03125 109.582031 393.03125 108.285156 Z M 457.355469 105.324219 L 487.070312 105.324219 L 487.070312 70.679688 L 457.355469 70.679688 Z M 457.355469 69.425781 L 487.070312 69.425781 L 487.070312 34.785156 L 457.355469 34.785156 Z M 501.191406 103.175781 L 623.609375 103.175781 L 623.609375 40.40625 L 501.191406 40.40625 Z M 513.625 19.292969 C 513.625 21.109375 515.09375 22.578125 516.90625 22.578125 C 518.722656 22.578125 520.191406 21.109375 520.191406 19.292969 C 520.191406 17.484375 518.722656 16.011719 516.90625 16.011719 C 515.09375 16.011719 513.625 17.484375 513.625 19.292969 Z M 599.429688 109.996094 L 580.003906 109.996094 L 580.003906 111.253906 L 599.429688 111.253906 Z M 599.429688 114.179688 L 591.296875 114.179688 L 591.296875 115.4375 L 599.429688 115.4375 Z M 588.136719 115.4375 L 588.136719 114.179688 L 580.003906 114.179688 L 580.003906 115.4375 Z M 592.777344 118.371094 L 580.003906 118.371094 L 580.003906 119.625 L 592.777344 119.625 Z M 559.273438 109.996094 L 539.84375 109.996094 L 539.84375 111.253906 L 559.273438 111.253906 Z M 559.273438 114.179688 L 551.140625 114.179688 L 551.140625 115.4375 L 559.273438 115.4375 Z M 547.976562 115.4375 L 547.976562 114.179688 L 539.84375 114.179688 L 539.84375 115.4375 Z M 552.621094 118.371094 L 539.84375 118.371094 L 539.84375 119.625 L 552.621094 119.625 Z M 140.351562 130.675781 L 140.351562 14.070312 C 140.351562 10.601562 143.160156 7.792969 146.625 7.792969 L 281.226562 7.792969 C 284.695312 7.792969 287.503906 10.601562 287.503906 14.070312 L 287.503906 33.53125 L 310.203125 33.53125 L 310.203125 14.070312 C 310.203125 10.601562 313.011719 7.792969 316.480469 7.792969 L 451.082031 7.792969 C 454.546875 7.792969 457.355469 10.601562 457.355469 14.070312 L 457.355469 33.53125 L 487.070312 33.53125 L 487.070312 14.070312 C 487.070312 10.601562 489.878906 7.792969 493.34375 7.792969 L 627.941406 7.792969 C 631.410156 7.792969 634.214844 10.601562 634.214844 14.070312 L 634.214844 105.324219 L 650.433594 105.324219 C 650.6875 105.734375 650.921875 106.164062 651.167969 106.578125 L 634.214844 106.578125 L 634.214844 130.675781 C 634.214844 134.140625 631.410156 136.953125 627.941406 136.953125 L 493.34375 136.953125 C 489.878906 136.953125 487.070312 134.140625 487.070312 130.675781 L 487.070312 106.578125 L 457.355469 106.578125 L 457.355469 117.613281 C 457.355469 121.082031 454.546875 123.890625 451.082031 123.890625 L 316.480469 123.890625 C 313.011719 123.890625 310.203125 121.082031 310.203125 117.613281 L 310.203125 106.578125 L 287.503906 106.578125 L 287.503906 130.675781 C 287.503906 134.140625 284.695312 136.953125 281.226562 136.953125 L 146.625 136.953125 C 143.160156 136.953125 140.351562 134.140625 140.351562 130.675781 Z M 572.40625 163.882812 C 571.714844 163.882812 571.148438 164.445312 571.148438 165.136719 C 571.148438 165.832031 571.714844 166.390625 572.40625 166.390625 L 597.753906 166.390625 C 598.449219 166.390625 599.007812 165.832031 599.007812 165.136719 C 599.007812 164.445312 598.449219 163.882812 597.753906 163.882812 Z M 599.863281 312.140625 C 599.863281 311.449219 599.304688 310.886719 598.605469 310.886719 L 565.339844 310.886719 C 564.648438 310.886719 564.085938 311.449219 564.085938 312.140625 C 564.085938 312.832031 564.648438 313.398438 565.339844 313.398438 L 598.605469 313.398438 C 599.304688 313.398438 599.863281 312.832031 599.863281 312.140625 Z M 585.960938 336.75 C 585.960938 336.054688 585.402344 335.496094 584.703125 335.496094 L 536.71875 335.496094 C 536.027344 335.496094 535.460938 336.054688 535.460938 336.75 C 535.460938 337.441406 536.027344 338.007812 536.71875 338.007812 L 584.703125 338.007812 C 585.402344 338.007812 585.960938 337.441406 585.960938 336.75 Z M 584.929688 344.949219 C 584.929688 344.257812 584.371094 343.695312 583.675781 343.695312 L 535.6875 343.695312 C 534.992188 343.695312 534.433594 344.257812 534.433594 344.949219 C 534.433594 345.648438 534.992188 346.207031 535.6875 346.207031 L 583.675781 346.207031 C 584.371094 346.207031 584.929688 345.648438 584.929688 344.949219 Z M 537.519531 320.339844 C 537.519531 321.039062 538.085938 321.597656 538.777344 321.597656 L 577.558594 321.597656 C 578.25 321.597656 578.8125 321.039062 578.8125 320.339844 C 578.8125 319.648438 578.25 319.085938 577.558594 319.085938 L 538.777344 319.085938 C 538.085938 319.085938 537.519531 319.648438 537.519531 320.339844 Z M 538.554688 312.140625 C 538.554688 312.832031 539.113281 313.398438 539.8125 313.398438 L 556.445312 313.398438 C 557.136719 313.398438 557.699219 312.832031 557.699219 312.140625 C 557.699219 311.449219 557.136719 310.886719 556.445312 310.886719 L 539.8125 310.886719 C 539.113281 310.886719 538.554688 311.449219 538.554688 312.140625 Z M 539.585938 303.941406 C 539.585938 304.632812 540.144531 305.195312 540.839844 305.195312 L 588.828125 305.195312 C 589.523438 305.195312 590.082031 304.632812 590.082031 303.941406 C 590.082031 303.246094 589.523438 302.6875 588.828125 302.6875 L 540.839844 302.6875 C 540.144531 302.6875 539.585938 303.246094 539.585938 303.941406 Z M 530.347656 303.941406 C 530.347656 303.246094 529.785156 302.6875 529.09375 302.6875 L 520.726562 302.6875 C 520.035156 302.6875 519.472656 303.246094 519.472656 303.941406 C 519.472656 304.632812 520.035156 305.195312 520.726562 305.195312 L 529.09375 305.195312 C 529.785156 305.195312 530.347656 304.632812 530.347656 303.941406 Z M 529.316406 312.140625 C 529.316406 311.449219 528.757812 310.886719 528.058594 310.886719 L 519.695312 310.886719 C 519 310.886719 518.441406 311.449219 518.441406 312.140625 C 518.441406 312.832031 519 313.398438 519.695312 313.398438 L 528.058594 313.398438 C 528.757812 313.398438 529.316406 312.832031 529.316406 312.140625 Z M 528.285156 320.339844 C 528.285156 319.648438 527.726562 319.085938 527.03125 319.085938 L 518.664062 319.085938 C 517.972656 319.085938 517.40625 319.648438 517.40625 320.339844 C 517.40625 321.039062 517.972656 321.597656 518.664062 321.597656 L 527.03125 321.597656 C 527.726562 321.597656 528.285156 321.039062 528.285156 320.339844 Z M 526.226562 336.75 C 526.226562 336.054688 525.664062 335.496094 524.972656 335.496094 L 516.605469 335.496094 C 515.914062 335.496094 515.347656 336.054688 515.347656 336.75 C 515.347656 337.441406 515.914062 338.007812 516.605469 338.007812 L 524.972656 338.007812 C 525.664062 338.007812 526.226562 337.441406 526.226562 336.75 Z M 525.199219 344.949219 C 525.199219 344.257812 524.632812 343.695312 523.941406 343.695312 L 515.574219 343.695312 C 514.878906 343.695312 514.320312 344.257812 514.320312 344.949219 C 514.320312 345.648438 514.878906 346.207031 515.574219 346.207031 L 523.941406 346.207031 C 524.632812 346.207031 525.199219 345.648438 525.199219 344.949219 Z M 616.460938 298.894531 L 609.558594 353.8125 L 594.492188 353.8125 C 594.621094 353.621094 594.710938 353.402344 594.710938 353.15625 C 594.710938 352.460938 594.152344 351.902344 593.453125 351.902344 L 560.1875 351.902344 C 559.496094 351.902344 558.933594 352.460938 558.933594 353.15625 C 558.933594 353.402344 559.023438 353.621094 559.148438 353.8125 L 552.332031 353.8125 C 552.453125 353.621094 552.546875 353.402344 552.546875 353.15625 C 552.546875 352.460938 551.984375 351.902344 551.292969 351.902344 L 534.652344 351.902344 C 533.960938 351.902344 533.398438 352.460938 533.398438 353.15625 C 533.398438 353.402344 533.492188 353.621094 533.613281 353.8125 L 523.949219 353.8125 C 524.074219 353.621094 524.164062 353.402344 524.164062 353.15625 C 524.164062 352.460938 523.605469 351.902344 522.90625 351.902344 L 514.546875 351.902344 C 513.847656 351.902344 513.289062 352.460938 513.289062 353.15625 C 513.289062 353.402344 513.378906 353.621094 513.503906 353.8125 L 505.253906 353.8125 L 512.15625 298.894531 C 512.59375 295.429688 515.753906 292.617188 519.222656 292.617188 L 610.976562 292.617188 C 614.4375 292.617188 616.898438 295.429688 616.460938 298.894531 Z M 438.3125 317.296875 L 428.753906 317.296875 C 427.433594 317.296875 426.234375 318.363281 426.070312 319.683594 C 425.90625 321 426.835938 322.066406 428.15625 322.066406 L 437.714844 322.066406 C 439.03125 322.066406 440.234375 321 440.398438 319.683594 C 440.5625 318.363281 439.628906 317.296875 438.3125 317.296875 Z M 415.773438 317.296875 L 406.210938 317.296875 C 404.894531 317.296875 403.691406 318.363281 403.527344 319.683594 C 403.363281 321 404.296875 322.066406 405.613281 322.066406 L 415.171875 322.066406 C 416.488281 322.066406 417.695312 321 417.859375 319.683594 C 418.023438 318.363281 417.089844 317.296875 415.773438 317.296875 Z M 399.394531 297.234375 C 398.371094 297.234375 397.433594 298.066406 397.304688 299.089844 C 397.179688 300.117188 397.902344 300.949219 398.929688 300.949219 C 399.953125 300.949219 400.890625 300.117188 401.015625 299.089844 C 401.148438 298.066406 400.417969 297.234375 399.394531 297.234375 Z M 405.957031 300.949219 C 406.980469 300.949219 407.914062 300.117188 408.046875 299.089844 C 408.171875 298.066406 407.449219 297.234375 406.421875 297.234375 C 405.398438 297.234375 404.460938 298.066406 404.335938 299.089844 C 404.203125 300.117188 404.933594 300.949219 405.957031 300.949219 Z M 412.984375 300.949219 C 414.007812 300.949219 414.941406 300.117188 415.070312 299.089844 C 415.203125 298.066406 414.476562 297.234375 413.449219 297.234375 C 412.421875 297.234375 411.492188 298.066406 411.359375 299.089844 C 411.234375 300.117188 411.957031 300.949219 412.984375 300.949219 Z M 432.527344 308.757812 L 413.824219 308.757812 C 413.132812 308.757812 412.570312 309.320312 412.570312 310.011719 C 412.570312 310.710938 413.132812 311.269531 413.824219 311.269531 L 432.527344 311.269531 C 433.222656 311.269531 433.78125 310.710938 433.78125 310.011719 C 433.78125 309.320312 433.222656 308.757812 432.527344 308.757812 Z M 451.523438 292.601562 C 454.988281 292.601562 457.449219 295.417969 457.011719 298.878906 L 454.382812 319.808594 C 453.949219 323.273438 450.78125 326.085938 447.320312 326.085938 L 394.03125 326.085938 C 390.566406 326.085938 388.109375 323.273438 388.546875 319.808594 L 391.171875 298.878906 C 391.609375 295.417969 394.769531 292.601562 398.238281 292.601562 Z M 423.179688 183.546875 C 423.3125 182.523438 422.585938 181.6875 421.554688 181.6875 C 420.535156 181.6875 419.601562 182.523438 419.46875 183.546875 C 419.339844 184.570312 420.066406 185.402344 421.089844 185.402344 C 422.113281 185.402344 423.050781 184.570312 423.179688 183.546875 Z M 489.429688 274.804688 C 489.429688 274.109375 488.867188 273.550781 488.175781 273.550781 L 481.765625 273.550781 C 481.066406 273.550781 480.507812 274.109375 480.507812 274.804688 C 480.507812 275.496094 481.066406 276.0625 481.765625 276.0625 L 488.175781 276.0625 C 488.867188 276.0625 489.429688 275.496094 489.429688 274.804688 Z M 480.234375 210.359375 C 480.925781 210.359375 481.488281 209.792969 481.488281 209.101562 C 481.488281 208.40625 480.925781 207.847656 480.234375 207.847656 L 461.554688 207.847656 C 460.863281 207.847656 460.296875 208.40625 460.296875 209.101562 C 460.296875 209.792969 460.863281 210.359375 461.554688 210.359375 Z M 476.597656 220.09375 L 431.140625 220.09375 C 429.292969 220.09375 427.605469 221.59375 427.375 223.441406 L 425.996094 234.378906 C 425.765625 236.222656 427.074219 237.722656 428.925781 237.722656 L 474.382812 237.722656 C 476.230469 237.722656 477.917969 236.222656 478.148438 234.378906 L 479.519531 223.441406 C 479.753906 221.59375 478.441406 220.09375 476.597656 220.09375 Z M 456.984375 270.035156 L 463.394531 270.035156 C 464.085938 270.035156 464.652344 269.46875 464.652344 268.777344 C 464.652344 268.082031 464.085938 267.523438 463.394531 267.523438 L 456.984375 267.523438 C 456.289062 267.523438 455.730469 268.082031 455.730469 268.777344 C 455.730469 269.46875 456.289062 270.035156 456.984375 270.035156 Z M 467.964844 274.804688 C 467.964844 274.109375 467.402344 273.550781 466.710938 273.550781 L 456.222656 273.550781 C 455.53125 273.550781 454.96875 274.109375 454.96875 274.804688 C 454.96875 275.496094 455.53125 276.0625 456.222656 276.0625 L 466.710938 276.0625 C 467.402344 276.0625 467.964844 275.496094 467.964844 274.804688 Z M 446.261719 268.777344 C 446.261719 268.082031 445.699219 267.523438 445.007812 267.523438 L 433.8125 267.523438 C 433.117188 267.523438 432.558594 268.082031 432.558594 268.777344 C 432.558594 269.46875 433.117188 270.035156 433.8125 270.035156 L 445.007812 270.035156 C 445.699219 270.035156 446.261719 269.46875 446.261719 268.777344 Z M 440.722656 274.804688 C 440.722656 274.109375 440.160156 273.550781 439.46875 273.550781 L 433.050781 273.550781 C 432.359375 273.550781 431.796875 274.109375 431.796875 274.804688 C 431.796875 275.496094 432.359375 276.0625 433.050781 276.0625 L 439.46875 276.0625 C 440.160156 276.0625 440.722656 275.496094 440.722656 274.804688 Z M 420.949219 268.777344 C 420.949219 268.082031 420.390625 267.523438 419.695312 267.523438 L 406.871094 267.523438 C 406.179688 267.523438 405.613281 268.082031 405.613281 268.777344 C 405.613281 269.46875 406.179688 270.035156 406.871094 270.035156 L 419.695312 270.035156 C 420.390625 270.035156 420.949219 269.46875 420.949219 268.777344 Z M 415.070312 274.804688 C 415.070312 274.109375 414.507812 273.550781 413.816406 273.550781 L 406.113281 273.550781 C 405.417969 273.550781 404.859375 274.109375 404.859375 274.804688 C 404.859375 275.496094 405.417969 276.0625 406.113281 276.0625 L 413.816406 276.0625 C 414.507812 276.0625 415.070312 275.496094 415.070312 274.804688 Z M 427.917969 209.101562 C 427.917969 209.792969 428.484375 210.359375 429.175781 210.359375 L 452.875 210.359375 C 453.570312 210.359375 454.132812 209.792969 454.132812 209.101562 C 454.132812 208.40625 453.570312 207.847656 452.875 207.847656 L 429.175781 207.847656 C 428.484375 207.847656 427.917969 208.40625 427.917969 209.101562 Z M 481.265625 268.777344 C 481.265625 269.46875 481.828125 270.035156 482.519531 270.035156 L 493.714844 270.035156 C 494.40625 270.035156 494.972656 269.46875 494.972656 268.777344 C 494.972656 268.082031 494.40625 267.523438 493.714844 267.523438 L 482.519531 267.523438 C 481.828125 267.523438 481.265625 268.082031 481.265625 268.777344 Z M 491.789062 283.425781 L 400.035156 283.425781 C 396.570312 283.425781 394.113281 280.617188 394.550781 277.148438 L 405.160156 192.695312 L 509.460938 192.695312 L 510.972656 180.671875 L 498.847656 277.148438 C 498.417969 280.617188 495.253906 283.425781 491.789062 283.425781 Z M 632.289062 344.917969 L 619.628906 344.917969 C 618.9375 344.917969 618.371094 345.480469 618.371094 346.171875 C 618.371094 346.863281 618.9375 347.429688 619.628906 347.429688 L 632.289062 347.429688 C 632.980469 347.429688 633.542969 346.863281 633.542969 346.171875 C 633.542969 345.480469 632.980469 344.917969 632.289062 344.917969 Z M 638.476562 336.710938 L 620.660156 336.710938 C 619.964844 336.710938 619.40625 337.277344 619.40625 337.96875 C 619.40625 338.664062 619.964844 339.222656 620.660156 339.222656 L 638.476562 339.222656 C 639.171875 339.222656 639.730469 338.664062 639.730469 337.96875 C 639.730469 337.277344 639.171875 336.710938 638.476562 336.710938 Z M 621.691406 331.023438 L 632.265625 331.023438 C 632.957031 331.023438 633.519531 330.460938 633.519531 329.765625 C 633.519531 329.074219 632.957031 328.511719 632.265625 328.511719 L 621.691406 328.511719 C 620.996094 328.511719 620.4375 329.074219 620.4375 329.765625 C 620.4375 330.460938 620.996094 331.023438 621.691406 331.023438 Z M 644.613281 235.855469 L 631.957031 235.855469 C 631.261719 235.855469 630.703125 236.417969 630.703125 237.109375 C 630.703125 237.808594 631.261719 238.367188 631.957031 238.367188 L 644.613281 238.367188 C 645.304688 238.367188 645.867188 237.808594 645.867188 237.109375 C 645.867188 236.417969 645.304688 235.855469 644.613281 235.855469 Z M 650.800781 227.65625 L 632.984375 227.65625 C 632.289062 227.65625 631.730469 228.214844 631.730469 228.910156 C 631.730469 229.601562 632.289062 230.167969 632.984375 230.167969 L 650.800781 230.167969 C 651.496094 230.167969 652.054688 229.601562 652.054688 228.910156 C 652.054688 228.214844 651.496094 227.65625 650.800781 227.65625 Z M 634.015625 219.449219 C 633.324219 219.449219 632.761719 220.015625 632.761719 220.707031 C 632.761719 221.402344 633.324219 221.960938 634.015625 221.960938 L 644.589844 221.960938 C 645.285156 221.960938 645.84375 221.402344 645.84375 220.707031 C 645.84375 220.015625 645.285156 219.449219 644.589844 219.449219 Z M 614.867188 192.695312 C 614.867188 192 614.308594 191.4375 613.613281 191.4375 L 592.46875 191.4375 C 591.773438 191.4375 591.214844 192 591.214844 192.695312 C 591.214844 193.390625 591.773438 193.949219 592.46875 193.949219 L 613.613281 193.949219 C 614.308594 193.949219 614.867188 193.390625 614.867188 192.695312 Z M 604.277344 209.101562 C 604.277344 208.40625 603.71875 207.847656 603.023438 207.847656 L 584.546875 207.847656 C 583.855469 207.847656 583.292969 208.40625 583.292969 209.101562 C 583.292969 209.792969 583.855469 210.359375 584.546875 210.359375 L 603.023438 210.359375 C 603.71875 210.359375 604.277344 209.792969 604.277344 209.101562 Z M 599.125 250.113281 C 599.125 249.421875 598.566406 248.855469 597.871094 248.855469 L 579.394531 248.855469 C 578.703125 248.855469 578.140625 249.421875 578.140625 250.113281 C 578.140625 250.808594 578.703125 251.367188 579.394531 251.367188 L 597.871094 251.367188 C 598.566406 251.367188 599.125 250.808594 599.125 250.113281 Z M 589.953125 258.316406 C 589.953125 257.621094 589.394531 257.0625 588.699219 257.0625 L 566.375 257.0625 C 565.679688 257.0625 565.121094 257.621094 565.121094 258.316406 C 565.121094 259.007812 565.679688 259.574219 566.375 259.574219 L 588.699219 259.574219 C 589.394531 259.574219 589.953125 259.007812 589.953125 258.316406 Z M 577.300781 266.515625 C 577.300781 265.824219 576.738281 265.261719 576.046875 265.261719 L 545.542969 265.261719 C 544.84375 265.261719 544.285156 265.824219 544.285156 266.515625 C 544.285156 267.214844 544.84375 267.773438 545.542969 267.773438 L 576.046875 267.773438 C 576.738281 267.773438 577.300781 267.214844 577.300781 266.515625 Z M 544.320312 192.695312 C 544.320312 192 543.761719 191.4375 543.066406 191.4375 L 534.703125 191.4375 C 534.011719 191.4375 533.449219 192 533.449219 192.695312 C 533.449219 193.390625 534.011719 193.949219 534.703125 193.949219 L 543.066406 193.949219 C 543.761719 193.949219 544.320312 193.390625 544.320312 192.695312 Z M 543.292969 200.898438 C 543.292969 200.207031 542.730469 199.644531 542.035156 199.644531 L 533.671875 199.644531 C 532.976562 199.644531 532.417969 200.207031 532.417969 200.898438 C 532.417969 201.589844 532.976562 202.152344 533.671875 202.152344 L 542.035156 202.152344 C 542.730469 202.152344 543.292969 201.589844 543.292969 200.898438 Z M 542.261719 209.101562 C 542.261719 208.40625 541.703125 207.847656 541.007812 207.847656 L 532.644531 207.847656 C 531.949219 207.847656 531.390625 208.40625 531.390625 209.101562 C 531.390625 209.792969 531.949219 210.359375 532.644531 210.359375 L 541.007812 210.359375 C 541.703125 210.359375 542.261719 209.792969 542.261719 209.101562 Z M 541.230469 217.304688 C 541.230469 216.613281 540.667969 216.046875 539.976562 216.046875 L 531.609375 216.046875 C 530.917969 216.046875 530.355469 216.613281 530.355469 217.304688 C 530.355469 217.996094 530.917969 218.558594 531.609375 218.558594 L 539.976562 218.558594 C 540.667969 218.558594 541.230469 217.996094 541.230469 217.304688 Z M 540.203125 225.507812 C 540.203125 224.8125 539.640625 224.253906 538.949219 224.253906 L 530.578125 224.253906 C 529.890625 224.253906 529.324219 224.8125 529.324219 225.507812 C 529.324219 226.199219 529.890625 226.761719 530.578125 226.761719 L 538.949219 226.761719 C 539.640625 226.761719 540.203125 226.199219 540.203125 225.507812 Z M 538.140625 241.914062 C 538.140625 241.214844 537.582031 240.65625 536.882812 240.65625 L 528.519531 240.65625 C 527.824219 240.65625 527.265625 241.214844 527.265625 241.914062 C 527.265625 242.605469 527.824219 243.167969 528.519531 243.167969 L 536.882812 243.167969 C 537.582031 243.167969 538.140625 242.605469 538.140625 241.914062 Z M 537.109375 250.113281 C 537.109375 249.421875 536.546875 248.855469 535.855469 248.855469 L 527.488281 248.855469 C 526.796875 248.855469 526.230469 249.421875 526.230469 250.113281 C 526.230469 250.808594 526.796875 251.367188 527.488281 251.367188 L 535.855469 251.367188 C 536.546875 251.367188 537.109375 250.808594 537.109375 250.113281 Z M 536.082031 258.316406 C 536.082031 257.621094 535.515625 257.0625 534.824219 257.0625 L 526.457031 257.0625 C 525.765625 257.0625 525.203125 257.621094 525.203125 258.316406 C 525.203125 259.007812 525.765625 259.574219 526.457031 259.574219 L 534.824219 259.574219 C 535.515625 259.574219 536.082031 259.007812 536.082031 258.316406 Z M 535.050781 266.515625 C 535.050781 265.824219 534.488281 265.261719 533.796875 265.261719 L 525.429688 265.261719 C 524.738281 265.261719 524.171875 265.824219 524.171875 266.515625 C 524.171875 267.214844 524.738281 267.773438 525.429688 267.773438 L 533.796875 267.773438 C 534.488281 267.773438 535.050781 267.214844 535.050781 266.515625 Z M 545.316406 258.316406 C 545.316406 259.007812 545.878906 259.574219 546.570312 259.574219 L 559.226562 259.574219 C 559.917969 259.574219 560.484375 259.007812 560.484375 258.316406 C 560.484375 257.621094 559.917969 257.0625 559.226562 257.0625 L 546.570312 257.0625 C 545.878906 257.0625 545.316406 257.621094 545.316406 258.316406 Z M 546.34375 250.113281 C 546.34375 250.808594 546.910156 251.367188 547.601562 251.367188 L 572.253906 251.367188 C 572.945312 251.367188 573.507812 250.808594 573.507812 250.113281 C 573.507812 249.421875 572.945312 248.855469 572.253906 248.855469 L 547.601562 248.855469 C 546.910156 248.855469 546.34375 249.421875 546.34375 250.113281 Z M 547.375 241.914062 C 547.375 242.605469 547.9375 243.167969 548.628906 243.167969 L 559.203125 243.167969 C 559.898438 243.167969 560.457031 242.605469 560.457031 241.914062 C 560.457031 241.214844 559.898438 240.65625 559.203125 240.65625 L 548.628906 240.65625 C 547.9375 240.65625 547.375 241.214844 547.375 241.914062 Z M 549.4375 225.507812 C 549.4375 226.199219 550.003906 226.761719 550.695312 226.761719 L 565.945312 226.761719 C 566.640625 226.761719 567.199219 226.199219 567.199219 225.507812 C 567.199219 224.8125 566.640625 224.253906 565.945312 224.253906 L 550.695312 224.253906 C 550.003906 224.253906 549.4375 224.8125 549.4375 225.507812 Z M 550.46875 217.304688 C 550.46875 217.996094 551.03125 218.558594 551.722656 218.558594 L 564.378906 218.558594 C 565.078125 218.558594 565.636719 217.996094 565.636719 217.304688 C 565.636719 216.613281 565.078125 216.046875 564.378906 216.046875 L 551.722656 216.046875 C 551.03125 216.046875 550.46875 216.613281 550.46875 217.304688 Z M 551.496094 209.101562 C 551.496094 209.792969 552.0625 210.359375 552.753906 210.359375 L 577.40625 210.359375 C 578.097656 210.359375 578.660156 209.792969 578.660156 209.101562 C 578.660156 208.40625 578.097656 207.847656 577.40625 207.847656 L 552.753906 207.847656 C 552.0625 207.847656 551.496094 208.40625 551.496094 209.101562 Z M 552.527344 200.898438 C 552.527344 201.589844 553.089844 202.152344 553.78125 202.152344 L 564.355469 202.152344 C 565.050781 202.152344 565.609375 201.589844 565.609375 200.898438 C 565.609375 200.207031 565.050781 199.644531 564.355469 199.644531 L 553.78125 199.644531 C 553.089844 199.644531 552.527344 200.207031 552.527344 200.898438 Z M 553.5625 192.695312 C 553.5625 193.390625 554.121094 193.949219 554.816406 193.949219 L 585.320312 193.949219 C 586.011719 193.949219 586.578125 193.390625 586.578125 192.695312 C 586.578125 192 586.011719 191.4375 585.320312 191.4375 L 554.816406 191.4375 C 554.121094 191.4375 553.5625 192 553.5625 192.695312 Z M 591.160156 202.152344 C 591.855469 202.152344 592.414062 201.589844 592.414062 200.898438 C 592.414062 200.207031 591.855469 199.644531 591.160156 199.644531 L 570.011719 199.644531 C 569.320312 199.644531 568.757812 200.207031 568.757812 200.898438 C 568.757812 201.589844 569.320312 202.152344 570.011719 202.152344 Z M 581.164062 217.304688 C 581.164062 216.613281 580.601562 216.046875 579.910156 216.046875 L 571.527344 216.046875 C 570.832031 216.046875 570.273438 216.613281 570.273438 217.304688 C 570.273438 217.996094 570.832031 218.558594 571.527344 218.558594 L 579.910156 218.558594 C 580.601562 218.558594 581.164062 217.996094 581.164062 217.304688 Z M 586.007812 240.65625 L 564.859375 240.65625 C 564.167969 240.65625 563.605469 241.214844 563.605469 241.914062 C 563.605469 242.605469 564.167969 243.167969 564.859375 243.167969 L 586.007812 243.167969 C 586.703125 243.167969 587.261719 242.605469 587.261719 241.914062 C 587.261719 241.214844 586.703125 240.65625 586.007812 240.65625 Z M 593.292969 226.761719 C 593.984375 226.761719 594.546875 226.199219 594.546875 225.507812 C 594.546875 224.8125 593.984375 224.253906 593.292969 224.253906 L 571.429688 224.253906 C 570.738281 224.253906 570.175781 224.8125 570.175781 225.507812 C 570.175781 226.199219 570.738281 226.761719 571.429688 226.761719 Z M 619.191406 277.148438 C 618.753906 280.617188 615.59375 283.425781 612.128906 283.425781 L 520.375 283.425781 C 516.90625 283.425781 514.453125 280.617188 514.886719 277.148438 L 527.011719 180.671875 C 527.441406 177.207031 530.609375 174.394531 534.070312 174.394531 L 625.824219 174.394531 C 629.289062 174.394531 631.746094 177.207031 631.3125 180.671875 Z M 291.179688 213.011719 L 290.011719 203.378906 C 288.886719 194.027344 291.640625 185.191406 296.929688 178.367188 L 245.527344 178.367188 L 245.527344 212.871094 C 245.527344 212.917969 245.511719 212.960938 245.511719 213.011719 Z M 234.992188 177.210938 L 222.558594 177.210938 L 222.558594 207.296875 L 234.992188 207.296875 Z M 216.25 178.367188 L 216.25 173.445312 L 203.816406 173.445312 L 203.816406 207.296875 L 216.25 207.296875 Z M 197.507812 181.726562 L 185.078125 181.726562 L 185.078125 207.296875 L 197.507812 207.296875 Z M 178.769531 196.84375 L 166.335938 196.84375 L 166.335938 207.296875 L 178.769531 207.296875 Z M 160.027344 191.519531 L 147.59375 191.519531 L 147.59375 207.296875 L 160.027344 207.296875 Z M 287.054688 250.160156 L 97.828125 250.160156 C 97.800781 249.746094 97.765625 249.324219 97.742188 248.90625 L 287.410156 248.90625 L 290.851562 236.777344 C 292.332031 231.550781 292.757812 226.085938 292.105469 220.691406 L 291.332031 214.265625 L 245.355469 214.265625 C 244.714844 217.058594 242.230469 219.148438 239.25 219.148438 L 146.625 219.148438 C 143.640625 219.148438 141.152344 217.058594 140.515625 214.265625 L 98.195312 214.265625 C 98.234375 213.84375 98.285156 213.429688 98.328125 213.011719 L 140.363281 213.011719 C 140.363281 212.960938 140.351562 212.917969 140.351562 212.871094 L 140.351562 178.367188 L 104.882812 178.367188 C 105 177.945312 105.132812 177.535156 105.253906 177.113281 L 140.351562 177.113281 L 140.351562 164.257812 C 140.351562 160.792969 143.160156 157.980469 146.625 157.980469 L 239.25 157.980469 C 242.710938 157.980469 245.527344 160.792969 245.527344 164.257812 L 245.527344 177.113281 L 297.953125 177.113281 C 304.179688 169.824219 313.429688 165.136719 323.894531 165.136719 C 334.226562 165.136719 343.5625 169.75 349.851562 177.113281 L 382.894531 177.113281 L 382.757812 178.367188 L 350.878906 178.367188 C 354.667969 183.257812 357.171875 189.222656 357.84375 195.777344 L 358.1875 199.097656 L 365.332031 213.011719 L 378.917969 213.011719 L 378.773438 214.265625 L 365.792969 214.265625 C 365.824219 215.0625 365.328125 215.832031 364.5 216.070312 L 361.695312 216.894531 C 360.878906 217.132812 360.34375 217.90625 360.40625 218.753906 C 360.839844 224.339844 362.09375 244.261719 358.1875 246.367188 C 353.636719 248.816406 331.914062 244.421875 331.914062 244.421875 C 331.503906 245.90625 331.164062 247.402344 330.882812 248.90625 L 374.9375 248.90625 L 374.800781 250.160156 L 330.664062 250.160156 C 329.894531 254.820312 329.703125 259.554688 330.105469 264.25 C 325.238281 262.589844 318.734375 260.039062 308.617188 257.980469 C 298.917969 256.007812 289.570312 258.234375 284.265625 260.003906 Z M 258.597656 351.257812 C 257.054688 341.503906 255.019531 331.441406 252.476562 321.953125 L 252.480469 321.953125 C 252.4375 321.789062 252.394531 321.625 252.347656 321.464844 C 251.4375 318.109375 250.464844 314.824219 249.425781 311.660156 C 245.953125 301.085938 249.257812 290.34375 256.453125 283.398438 C 256.105469 283.554688 255.75 283.691406 255.40625 283.863281 C 254.820312 284.15625 254.261719 284.476562 253.707031 284.800781 L 102.609375 284.800781 C 102.695312 285.222656 102.78125 285.640625 102.867188 286.054688 L 251.777344 286.054688 C 240.921875 293.847656 237.421875 308.773438 244.132812 320.699219 L 112.484375 320.699219 C 112.628906 321.117188 112.761719 321.539062 112.90625 321.953125 L 244.835938 321.953125 Z M 376.289062 536.878906 C 381.414062 536.878906 386.546875 536.601562 391.683594 536.074219 L 358.851562 536.074219 C 364.648438 536.589844 370.460938 536.878906 376.289062 536.878906 Z M 305.960938 500.21875 C 304.742188 500.21875 303.558594 500.207031 302.390625 500.179688 L 255.355469 500.179688 C 256.046875 500.601562 256.742188 501.015625 257.433594 501.4375 L 483.097656 501.4375 C 483.746094 501.019531 484.386719 500.597656 485.027344 500.179688 L 307.488281 500.179688 C 306.972656 500.1875 306.484375 500.21875 305.960938 500.21875 Z M 256.136719 464.28125 L 207.777344 464.28125 C 208.238281 464.703125 208.699219 465.121094 209.160156 465.535156 L 256.210938 465.535156 C 256.1875 465.121094 256.164062 464.703125 256.136719 464.28125 Z M 362.152344 465.535156 L 529.160156 465.535156 C 529.609375 465.121094 530.058594 464.703125 530.511719 464.28125 L 362.597656 464.28125 C 362.457031 464.695312 362.308594 465.105469 362.152344 465.535156 Z M 257.128906 428.386719 L 173.5625 428.386719 C 173.914062 428.808594 174.273438 429.222656 174.625 429.644531 L 257 429.644531 C 257.039062 429.222656 257.085938 428.804688 257.128906 428.386719 Z M 262.339844 392.488281 L 147.398438 392.488281 C 147.667969 392.910156 147.9375 393.328125 148.207031 393.742188 L 262.339844 393.742188 C 262.339844 393.335938 262.339844 392.917969 262.339844 392.488281 Z M 455.710938 410.496094 C 458.652344 410.972656 461.542969 411.429688 464.34375 411.855469 L 464.023438 411.359375 L 456.578125 409.78125 Z M 521.308594 428.386719 L 540.199219 428.386719 L 534.222656 424.21875 L 523.535156 426.660156 Z M 376.398438 356.59375 L 615.753906 356.59375 C 615.507812 357.011719 615.269531 357.433594 615.023438 357.847656 L 377.035156 357.847656 C 384.988281 373.257812 392.277344 386.070312 396.671875 392.488281 L 592.71875 392.488281 C 592.425781 392.910156 592.132812 393.328125 591.835938 393.742188 L 397.554688 393.742188 C 398.699219 395.332031 399.59375 396.371094 400.179688 396.757812 C 404.839844 399.867188 416.363281 402.988281 429.828125 405.785156 L 451.179688 397.722656 C 453.363281 396.902344 455.800781 397.179688 457.738281 398.476562 L 468.289062 405.527344 L 472.691406 413.101562 C 480.925781 414.292969 487.695312 415.183594 491.464844 415.664062 L 503.15625 415.222656 L 528.230469 406.558594 C 530.480469 405.785156 532.972656 406.136719 534.914062 407.519531 L 545.480469 415.023438 L 552.753906 428.386719 L 564.871094 428.386719 C 564.511719 428.804688 564.15625 429.226562 563.796875 429.644531 L 553.433594 429.644531 L 553.679688 430.09375 C 554.144531 430.953125 553.792969 432.027344 552.902344 432.433594 C 551.132812 432.3125 549.109375 431.429688 547.460938 430.195312 L 547.890625 433.085938 C 548.085938 434.40625 547.007812 435.570312 545.679688 435.472656 C 543.605469 435.328125 541.898438 433.785156 541.542969 431.738281 L 541.171875 429.644531 L 519.6875 429.644531 L 514.550781 433.621094 C 512.128906 435.488281 509.308594 436.738281 506.332031 437.285156 C 504.398438 437.636719 502.402344 437.578125 500.453125 437.3125 L 488.59375 435.675781 L 400.320312 435.046875 C 389.664062 434.601562 381.816406 432.574219 375.84375 429.644531 L 353.328125 429.644531 C 353.265625 429.441406 353.207031 429.242188 353.148438 429.035156 L 353.140625 429.035156 C 353.09375 428.867188 353.042969 428.699219 352.996094 428.53125 C 352.980469 428.484375 352.964844 428.4375 352.949219 428.386719 L 352.957031 428.386719 C 351.070312 421.980469 349.710938 415.34375 349.710938 409.476562 C 349.710938 406.136719 350.207031 402.617188 351.007812 398.964844 C 351.214844 399.003906 351.425781 399.046875 351.636719 399.085938 L 338.394531 373.511719 C 337.699219 373.660156 336.988281 373.738281 336.265625 373.738281 C 329.675781 373.738281 323.175781 367.558594 318.292969 357.847656 L 127.9375 357.847656 C 127.738281 357.433594 127.527344 357.015625 127.320312 356.59375 L 317.679688 356.59375 C 314.097656 349.03125 311.464844 339.523438 310.453125 329.179688 C 309.644531 320.886719 309.984375 313.128906 311.234375 306.476562 C 311.136719 297.78125 313.480469 290.191406 319.960938 287.167969 C 320.480469 286.925781 321.003906 286.734375 321.523438 286.53125 C 323.375 285.289062 325.394531 284.617188 327.5625 284.617188 C 328.445312 284.617188 329.324219 284.742188 330.195312 284.953125 C 338.886719 285.148438 346.617188 290.699219 350.277344 299.914062 C 357.601562 318.34375 367.378906 339.054688 376.386719 356.59375 Z M 366.84375 321.953125 L 366.980469 320.699219 L 361.960938 320.699219 C 362.101562 321.117188 362.246094 321.539062 362.382812 321.953125 Z M 370.960938 284.800781 L 346.382812 284.800781 C 346.523438 285.058594 346.671875 285.316406 346.804688 285.574219 C 346.882812 285.730469 346.964844 285.898438 347.042969 286.054688 L 370.824219 286.054688 Z M 665.394531 141.21875 L 120.089844 141.21875 C 119.863281 141.636719 119.644531 142.058594 119.421875 142.472656 L 665.699219 142.472656 C 665.59375 142.058594 665.496094 141.636719 665.394531 141.21875 " fill-opacity="1" fill-rule="nonzero"/></g><g clip-path="url(#id4)"><path fill="#393a3f" d="M 528.789062 396.363281 L 493.441406 396.46875 L 475.769531 396.527344 L 458.097656 396.707031 L 458.097656 397.273438 L 475.769531 397.445312 L 493.441406 397.503906 L 528.789062 397.613281 L 564.136719 397.480469 L 581.8125 397.410156 L 599.484375 397.230469 L 599.484375 396.75 L 581.8125 396.570312 L 564.136719 396.496094 Z M 513.964844 118.371094 L 501.195312 118.371094 L 501.195312 119.625 L 513.964844 119.625 Z M 520.617188 115.4375 L 520.617188 114.179688 L 512.492188 114.179688 L 512.492188 115.4375 Z M 509.324219 114.179688 L 501.195312 114.179688 L 501.195312 115.4375 L 509.324219 115.4375 Z M 520.617188 109.996094 L 501.195312 109.996094 L 501.195312 111.253906 L 520.617188 111.253906 Z M 529.339844 22.578125 C 531.152344 22.578125 532.625 21.109375 532.625 19.292969 C 532.625 17.484375 531.152344 16.011719 529.339844 16.011719 C 527.527344 16.011719 526.058594 17.484375 526.058594 19.292969 C 526.058594 21.109375 527.527344 22.578125 529.339844 22.578125 Z M 350.941406 22.578125 C 352.753906 22.578125 354.226562 21.109375 354.226562 19.292969 C 354.226562 17.484375 352.753906 16.011719 350.941406 16.011719 C 349.128906 16.011719 347.65625 17.484375 347.65625 19.292969 C 347.65625 21.109375 349.128906 22.578125 350.941406 22.578125 Z M 222.707031 121.089844 L 209.929688 121.089844 L 209.929688 122.347656 L 222.707031 122.347656 Z M 229.359375 118.160156 L 229.359375 116.902344 L 221.226562 116.902344 L 221.226562 118.160156 Z M 218.0625 116.902344 L 209.929688 116.902344 L 209.929688 118.160156 L 218.0625 118.160156 Z M 229.359375 112.71875 L 209.929688 112.71875 L 209.929688 113.976562 L 229.359375 113.976562 Z M 176.53125 22.578125 C 178.339844 22.578125 179.8125 21.109375 179.8125 19.292969 C 179.8125 17.484375 178.339844 16.011719 176.53125 16.011719 C 174.71875 16.011719 173.25 17.484375 173.25 19.292969 C 173.25 21.109375 174.71875 22.578125 176.53125 22.578125 Z M 153.183594 213.324219 L 154.4375 213.324219 L 154.4375 211.988281 L 171.925781 211.988281 L 171.925781 213.324219 L 173.179688 213.324219 L 173.179688 211.988281 L 190.664062 211.988281 L 190.664062 213.324219 L 191.921875 213.324219 L 191.921875 211.988281 L 209.40625 211.988281 L 209.40625 213.324219 L 210.660156 213.324219 L 210.660156 211.988281 L 228.148438 211.988281 L 228.148438 213.324219 L 229.402344 213.324219 L 229.402344 211.988281 L 235.113281 211.988281 L 235.113281 210.730469 L 229.402344 210.730469 L 229.402344 209.390625 L 228.148438 209.390625 L 228.148438 210.730469 L 210.660156 210.730469 L 210.660156 209.390625 L 209.40625 209.390625 L 209.40625 210.730469 L 191.921875 210.730469 L 191.921875 209.390625 L 190.664062 209.390625 L 190.664062 210.730469 L 173.179688 210.730469 L 173.179688 209.390625 L 171.925781 209.390625 L 171.925781 210.730469 L 154.4375 210.730469 L 154.4375 209.390625 L 153.183594 209.390625 L 153.183594 210.730469 L 147.59375 210.730469 L 147.59375 211.988281 L 153.183594 211.988281 Z M 560.605469 165.136719 C 560.605469 164.445312 560.042969 163.882812 559.351562 163.882812 L 397.21875 163.882812 C 396.519531 163.882812 395.960938 164.445312 395.960938 165.136719 C 395.960938 165.832031 396.519531 166.390625 397.21875 166.390625 L 559.351562 166.390625 C 560.042969 166.390625 560.605469 165.832031 560.605469 165.136719 Z M 523.941406 343.695312 L 515.574219 343.695312 C 514.878906 343.695312 514.320312 344.257812 514.320312 344.949219 C 514.320312 345.648438 514.878906 346.207031 515.574219 346.207031 L 523.941406 346.207031 C 524.632812 346.207031 525.199219 345.648438 525.199219 344.949219 C 525.199219 344.257812 524.632812 343.695312 523.941406 343.695312 Z M 526.226562 336.75 C 526.226562 336.054688 525.664062 335.496094 524.972656 335.496094 L 516.605469 335.496094 C 515.914062 335.496094 515.347656 336.054688 515.347656 336.75 C 515.347656 337.441406 515.914062 338.007812 516.605469 338.007812 L 524.972656 338.007812 C 525.664062 338.007812 526.226562 337.441406 526.226562 336.75 Z M 528.285156 320.339844 C 528.285156 319.648438 527.726562 319.085938 527.03125 319.085938 L 518.664062 319.085938 C 517.972656 319.085938 517.40625 319.648438 517.40625 320.339844 C 517.40625 321.039062 517.972656 321.597656 518.664062 321.597656 L 527.03125 321.597656 C 527.726562 321.597656 528.285156 321.039062 528.285156 320.339844 Z M 529.316406 312.140625 C 529.316406 311.449219 528.757812 310.886719 528.058594 310.886719 L 519.695312 310.886719 C 519 310.886719 518.441406 311.449219 518.441406 312.140625 C 518.441406 312.832031 519 313.398438 519.695312 313.398438 L 528.058594 313.398438 C 528.757812 313.398438 529.316406 312.832031 529.316406 312.140625 Z M 530.347656 303.941406 C 530.347656 303.246094 529.785156 302.6875 529.09375 302.6875 L 520.726562 302.6875 C 520.035156 302.6875 519.472656 303.246094 519.472656 303.941406 C 519.472656 304.632812 520.035156 305.195312 520.726562 305.195312 L 529.09375 305.195312 C 529.785156 305.195312 530.347656 304.632812 530.347656 303.941406 Z M 411.359375 299.089844 C 411.234375 300.117188 411.957031 300.949219 412.984375 300.949219 C 414.007812 300.949219 414.941406 300.117188 415.070312 299.089844 C 415.203125 298.066406 414.476562 297.234375 413.449219 297.234375 C 412.421875 297.234375 411.492188 298.066406 411.359375 299.089844 Z M 426.496094 183.546875 C 426.371094 184.570312 427.097656 185.402344 428.121094 185.402344 C 429.144531 185.402344 430.082031 184.570312 430.207031 183.546875 C 430.335938 182.523438 429.609375 181.6875 428.585938 181.6875 C 427.5625 181.6875 426.625 182.523438 426.496094 183.546875 Z M 445.070312 227.65625 C 444.378906 227.65625 443.816406 228.214844 443.816406 228.910156 C 443.816406 229.601562 444.378906 230.167969 445.070312 230.167969 L 460.449219 230.167969 C 461.140625 230.167969 461.703125 229.601562 461.703125 228.910156 C 461.703125 228.214844 461.140625 227.65625 460.449219 227.65625 Z M 535.050781 266.515625 C 535.050781 265.824219 534.488281 265.261719 533.796875 265.261719 L 525.429688 265.261719 C 524.738281 265.261719 524.171875 265.824219 524.171875 266.515625 C 524.171875 267.214844 524.738281 267.773438 525.429688 267.773438 L 533.796875 267.773438 C 534.488281 267.773438 535.050781 267.214844 535.050781 266.515625 Z M 536.082031 258.316406 C 536.082031 257.621094 535.515625 257.0625 534.824219 257.0625 L 526.457031 257.0625 C 525.765625 257.0625 525.203125 257.621094 525.203125 258.316406 C 525.203125 259.007812 525.765625 259.574219 526.457031 259.574219 L 534.824219 259.574219 C 535.515625 259.574219 536.082031 259.007812 536.082031 258.316406 Z M 537.109375 250.113281 C 537.109375 249.421875 536.546875 248.855469 535.855469 248.855469 L 527.488281 248.855469 C 526.796875 248.855469 526.230469 249.421875 526.230469 250.113281 C 526.230469 250.808594 526.796875 251.367188 527.488281 251.367188 L 535.855469 251.367188 C 536.546875 251.367188 537.109375 250.808594 537.109375 250.113281 Z M 538.140625 241.914062 C 538.140625 241.214844 537.582031 240.65625 536.882812 240.65625 L 528.519531 240.65625 C 527.824219 240.65625 527.265625 241.214844 527.265625 241.914062 C 527.265625 242.605469 527.824219 243.167969 528.519531 243.167969 L 536.882812 243.167969 C 537.582031 243.167969 538.140625 242.605469 538.140625 241.914062 Z M 540.203125 225.507812 C 540.203125 224.8125 539.640625 224.253906 538.949219 224.253906 L 530.578125 224.253906 C 529.890625 224.253906 529.324219 224.8125 529.324219 225.507812 C 529.324219 226.199219 529.890625 226.761719 530.578125 226.761719 L 538.949219 226.761719 C 539.640625 226.761719 540.203125 226.199219 540.203125 225.507812 Z M 541.230469 217.304688 C 541.230469 216.613281 540.667969 216.046875 539.976562 216.046875 L 531.609375 216.046875 C 530.917969 216.046875 530.355469 216.613281 530.355469 217.304688 C 530.355469 217.996094 530.917969 218.558594 531.609375 218.558594 L 539.976562 218.558594 C 540.667969 218.558594 541.230469 217.996094 541.230469 217.304688 Z M 542.261719 209.101562 C 542.261719 208.40625 541.703125 207.847656 541.007812 207.847656 L 532.644531 207.847656 C 531.949219 207.847656 531.390625 208.40625 531.390625 209.101562 C 531.390625 209.792969 531.949219 210.359375 532.644531 210.359375 L 541.007812 210.359375 C 541.703125 210.359375 542.261719 209.792969 542.261719 209.101562 Z M 543.292969 200.898438 C 543.292969 200.207031 542.730469 199.644531 542.035156 199.644531 L 533.671875 199.644531 C 532.976562 199.644531 532.417969 200.207031 532.417969 200.898438 C 532.417969 201.589844 532.976562 202.152344 533.671875 202.152344 L 542.035156 202.152344 C 542.730469 202.152344 543.292969 201.589844 543.292969 200.898438 Z M 544.320312 192.695312 C 544.320312 192 543.761719 191.4375 543.066406 191.4375 L 534.703125 191.4375 C 534.011719 191.4375 533.449219 192 533.449219 192.695312 C 533.449219 193.390625 534.011719 193.949219 534.703125 193.949219 L 543.066406 193.949219 C 543.761719 193.949219 544.320312 193.390625 544.320312 192.695312 Z M 352.039062 198.582031 L 357.941406 198.289062 C 358.230469 194.847656 359.226562 191.671875 360.851562 190.867188 C 359.117188 190.6875 357.429688 190.738281 356.148438 191.300781 C 356.0625 186.945312 354.34375 184.625 353.265625 181.890625 C 353.246094 185.019531 354.097656 184.058594 353.769531 188.25 C 353.589844 190.574219 354.058594 192.957031 353.515625 195.222656 C 353.230469 196.425781 352.671875 197.519531 352.039062 198.582031 Z M 359.199219 198.226562 L 364.117188 197.980469 C 363.746094 194.222656 362.542969 191.929688 361.671875 191.929688 C 360.78125 191.929688 359.542969 194.328125 359.199219 198.226562 Z M 364.210938 199.230469 L 359.117188 199.484375 C 359.109375 199.78125 359.101562 200.078125 359.101562 200.386719 C 359.101562 205.550781 360.621094 208.847656 361.671875 208.847656 C 362.714844 208.847656 364.242188 205.550781 364.242188 200.386719 C 364.242188 199.992188 364.226562 199.609375 364.210938 199.230469 Z M 245.878906 249.695312 C 244.515625 240.722656 247.132812 231.214844 252.902344 224.214844 C 255.015625 221.644531 257.628906 219.207031 258.28125 215.945312 C 258.949219 212.582031 257.355469 209.234375 256.625 205.886719 C 255.238281 199.492188 257.210938 192.457031 261.730469 187.726562 C 265.199219 184.097656 269.996094 181.792969 272.921875 177.710938 C 275.378906 174.292969 276.242188 170.027344 277.921875 166.171875 C 282.644531 155.363281 294.582031 148.167969 306.335938 149.039062 C 309.605469 144.96875 315.929688 143.0625 321.066406 143.96875 C 326.203125 144.875 330.773438 147.796875 334.769531 151.148438 C 347.34375 149.222656 363.148438 161.222656 367.539062 192.359375 C 366.359375 192.007812 364.710938 191.535156 362.976562 191.191406 C 364.617188 192.589844 365.496094 196.585938 365.496094 200.386719 C 365.496094 205.097656 364.152344 210.105469 361.671875 210.105469 C 359.1875 210.105469 357.847656 205.097656 357.847656 200.386719 C 357.847656 200.109375 357.851562 199.828125 357.863281 199.550781 L 355.019531 199.691406 C 355.5625 199.980469 355.96875 201.054688 355.96875 202.34375 C 355.96875 203.855469 355.410156 205.082031 354.726562 205.082031 C 354.035156 205.082031 353.480469 203.855469 353.480469 202.34375 C 353.480469 201.09375 353.863281 200.050781 354.382812 199.722656 L 351.234375 199.878906 C 350.488281 201.050781 349.734375 202.222656 349.226562 203.507812 C 346.898438 209.398438 350.195312 216.078125 349.269531 222.347656 C 348.6875 226.28125 346.484375 229.773438 345.292969 233.570312 C 343.609375 238.957031 344.792969 246.40625 347.269531 251.476562 L 329.855469 251.476562 C 328.769531 247.371094 327.367188 243.648438 327.210938 239.40625 C 326.054688 243.84375 325.542969 247.890625 325.15625 252.464844 C 323.011719 246.679688 321.597656 241.050781 321.453125 234.886719 C 320.84375 239.820312 320.632812 244.757812 320.019531 249.695312 Z M 363.558594 419.132812 C 365.484375 421.554688 367.597656 423.847656 369.914062 425.929688 C 372.210938 428.019531 374.765625 429.875 377.585938 431.296875 C 379 431.976562 380.496094 432.527344 382.035156 432.914062 C 383.609375 433.257812 385.125 433.425781 386.648438 433.640625 C 389.707031 434.027344 392.765625 434.410156 395.828125 434.683594 C 401.960938 435.269531 408.109375 435.652344 414.273438 435.761719 C 414.421875 435.761719 414.554688 435.644531 414.5625 435.492188 C 414.570312 435.335938 414.449219 435.203125 414.292969 435.195312 C 411.226562 435.023438 408.164062 434.773438 405.109375 434.492188 C 402.050781 434.226562 398.996094 433.929688 395.949219 433.582031 C 392.898438 433.21875 389.847656 432.871094 386.808594 432.449219 C 385.296875 432.226562 383.75 432.039062 382.324219 431.71875 C 380.882812 431.34375 379.480469 430.820312 378.132812 430.167969 C 372.726562 427.488281 368.285156 423.109375 364.378906 418.460938 C 362.417969 416.121094 360.597656 413.65625 358.890625 411.113281 C 357.167969 408.582031 355.539062 405.976562 354.082031 403.289062 L 354.078125 403.277344 C 354.015625 403.164062 353.878906 403.121094 353.757812 403.179688 C 353.640625 403.238281 353.59375 403.378906 353.652344 403.5 C 356.398438 409.035156 359.695312 414.289062 363.558594 419.132812 Z M 321.558594 343.246094 C 320.863281 342.828125 320.21875 342.34375 319.601562 341.816406 C 318.988281 341.28125 318.425781 340.679688 317.863281 340.046875 C 317.792969 339.972656 317.683594 339.945312 317.585938 339.984375 C 317.464844 340.03125 317.402344 340.175781 317.449219 340.296875 C 318.101562 341.945312 319.375 343.351562 320.890625 344.308594 C 321.65625 344.785156 322.464844 345.171875 323.308594 345.4375 C 324.019531 345.664062 324.738281 345.8125 325.46875 345.90625 C 327.886719 351.414062 330.394531 356.882812 332.921875 362.339844 C 335.804688 368.414062 338.707031 374.476562 341.6875 380.496094 C 344.671875 386.519531 347.714844 392.507812 350.902344 398.433594 C 350.96875 398.570312 351.140625 398.625 351.273438 398.554688 C 351.417969 398.484375 351.476562 398.3125 351.40625 398.171875 C 349.921875 395.160156 348.476562 392.128906 347.035156 389.097656 L 342.6875 380.011719 L 334.054688 361.808594 C 331.171875 355.746094 328.355469 349.644531 325.578125 343.539062 C 324.183594 340.484375 322.828125 337.414062 321.507812 334.332031 C 320.203125 331.25 318.863281 328.160156 317.886719 324.972656 L 317.882812 324.957031 C 317.847656 324.832031 317.714844 324.765625 317.585938 324.800781 C 317.460938 324.832031 317.386719 324.964844 317.425781 325.09375 C 319.28125 331.601562 321.972656 337.78125 324.605469 343.964844 C 324.757812 344.308594 324.914062 344.652344 325.066406 344.996094 C 324.613281 344.800781 324.152344 344.609375 323.714844 344.402344 C 322.96875 344.042969 322.238281 343.675781 321.558594 343.246094 Z M 354.496094 224.03125 C 354.96875 224.335938 355.503906 224.527344 356.050781 224.660156 C 356.597656 224.765625 357.152344 224.820312 357.699219 224.765625 C 357.976562 224.746094 358.242188 224.695312 358.511719 224.65625 C 358.773438 224.574219 359.035156 224.507812 359.285156 224.40625 C 359.363281 224.371094 359.421875 224.296875 359.4375 224.214844 C 359.457031 224.074219 359.363281 223.949219 359.226562 223.929688 C 358.191406 223.765625 357.246094 223.660156 356.328125 223.4375 C 355.871094 223.332031 355.429688 223.1875 354.984375 223.035156 C 354.550781 222.882812 354.101562 222.671875 353.691406 222.472656 L 353.636719 222.441406 C 353.554688 222.402344 353.457031 222.402344 353.367188 222.457031 C 353.230469 222.535156 353.1875 222.710938 353.265625 222.84375 C 353.578125 223.378906 354.015625 223.726562 354.496094 224.03125 Z M 614.15625 437.140625 L 592.425781 404.453125 L 592.425781 404.171875 L 576.710938 403.992188 L 560.992188 403.941406 L 529.554688 403.828125 L 498.117188 403.964844 L 482.402344 404.03125 L 466.679688 404.214844 L 466.679688 404.695312 L 467.046875 404.699219 L 468.289062 405.527344 L 472.449219 412.6875 L 465.121094 411.644531 C 465.164062 411.625 465.214844 411.609375 465.257812 411.585938 C 465.542969 411.441406 465.785156 411.226562 466 410.996094 C 466.199219 410.75 466.382812 410.488281 466.488281 410.1875 C 466.597656 409.886719 466.671875 409.574219 466.636719 409.242188 C 466.625 409.183594 466.601562 409.117188 466.5625 409.070312 C 466.449219 408.9375 466.25 408.921875 466.117188 409.035156 L 466.101562 409.042969 C 465.871094 409.242188 465.703125 409.4375 465.527344 409.625 C 465.351562 409.804688 465.203125 409.996094 465.046875 410.183594 C 464.894531 410.375 464.734375 410.554688 464.585938 410.765625 C 464.429688 410.972656 464.269531 411.179688 464.113281 411.4375 L 464.101562 411.449219 C 464.101562 411.457031 464.101562 411.460938 464.097656 411.472656 L 464.023438 411.359375 L 456.796875 409.828125 C 456.84375 409.652344 456.890625 409.480469 456.925781 409.308594 C 457.050781 408.707031 457.085938 408.09375 457.09375 407.480469 C 457.078125 406.863281 457.027344 406.25 456.890625 405.652344 C 456.761719 405.054688 456.585938 404.460938 456.300781 403.910156 C 456.253906 403.816406 456.15625 403.753906 456.046875 403.753906 C 455.886719 403.75 455.75 403.878906 455.75 404.042969 C 455.738281 404.640625 455.773438 405.214844 455.789062 405.789062 L 455.835938 407.5 L 455.871094 409.210938 C 455.875 409.578125 455.886719 409.957031 455.890625 410.328125 L 452.289062 409.816406 C 439.75 407.9375 427.199219 406.027344 414.773438 403.578125 C 411.671875 402.957031 408.5625 402.332031 405.566406 401.449219 C 404.832031 401.21875 404.074219 400.972656 403.449219 400.648438 C 403.109375 400.460938 403.050781 400.421875 402.800781 400.019531 L 402.164062 399.058594 C 401.332031 397.714844 400.5 396.367188 399.691406 395.003906 C 396.449219 389.558594 393.269531 384.0625 390.097656 378.570312 L 378.875 359.066406 L 512.9375 359.066406 L 520.320312 387.3125 L 573.511719 387.3125 L 566.136719 359.066406 L 646.914062 359.066406 C 654.796875 359.066406 661.414062 353.136719 662.28125 345.304688 L 681.71875 169.902344 C 682.734375 160.742188 675.566406 152.730469 666.347656 152.730469 L 394.160156 152.730469 C 386.277344 152.730469 379.65625 158.65625 378.789062 166.496094 L 361.765625 320.136719 C 363.371094 324.839844 364.695312 329.425781 365.550781 333.636719 L 384.007812 167.074219 C 384.578125 161.890625 388.941406 157.980469 394.160156 157.980469 L 666.347656 157.980469 C 669.289062 157.980469 671.996094 159.191406 673.957031 161.382812 C 675.921875 163.578125 676.824219 166.398438 676.5 169.324219 L 657.066406 344.726562 C 656.492188 349.90625 652.125 353.8125 646.914062 353.8125 L 523.949219 353.8125 C 524.074219 353.621094 524.164062 353.402344 524.164062 353.15625 C 524.164062 352.460938 523.605469 351.902344 522.90625 351.902344 L 514.546875 351.902344 C 513.847656 351.902344 513.289062 352.460938 513.289062 353.15625 C 513.289062 353.402344 513.378906 353.621094 513.503906 353.8125 L 375.847656 353.8125 L 371.097656 345.570312 C 371.035156 345.460938 370.894531 345.417969 370.773438 345.480469 C 370.664062 345.542969 370.617188 345.691406 370.683594 345.808594 L 375.109375 353.8125 L 374.964844 353.8125 C 375.875 355.597656 376.773438 357.347656 377.667969 359.066406 L 378.003906 359.066406 L 379.886719 362.472656 L 389.246094 379.058594 C 392.382812 384.578125 395.515625 390.09375 398.730469 395.574219 C 399.53125 396.945312 400.355469 398.308594 401.1875 399.671875 L 401.855469 400.691406 C 401.996094 400.878906 402.007812 400.996094 402.277344 401.246094 C 402.5 401.472656 402.691406 401.5625 402.894531 401.679688 C 403.679688 402.085938 404.441406 402.332031 405.21875 402.582031 C 408.300781 403.511719 411.414062 404.160156 414.53125 404.800781 C 427.015625 407.207031 439.582031 409.03125 452.140625 410.839844 L 471.003906 413.429688 L 489.898438 415.75 C 490.050781 415.765625 490.195312 415.65625 490.210938 415.503906 C 490.234375 415.347656 490.121094 415.203125 489.96875 415.183594 L 482.988281 414.1875 L 489.160156 404.90625 L 498.117188 404.945312 L 529.554688 405.078125 L 576.710938 404.914062 L 584.308594 404.828125 L 605.789062 437.140625 L 597.832031 437.140625 L 586.429688 424.234375 L 581.171875 427.691406 L 590.910156 437.140625 L 559.335938 437.140625 L 588.046875 418.914062 L 547.59375 418.914062 L 553.679688 430.09375 C 554.144531 430.953125 553.792969 432.027344 552.902344 432.433594 C 551.261719 432.316406 549.402344 431.539062 547.824219 430.445312 C 547.824219 430.40625 547.839844 430.378906 547.824219 430.34375 C 547.148438 428.75 547.132812 426.988281 546.917969 425.179688 C 546.820312 424.269531 546.625 423.335938 546.265625 422.433594 C 545.910156 421.53125 545.398438 420.710938 544.804688 419.972656 C 543.585938 418.523438 542.113281 417.382812 540.628906 416.371094 C 539.144531 415.351562 537.660156 414.394531 536.324219 413.226562 C 536.242188 413.148438 536.109375 413.144531 536.015625 413.222656 C 535.914062 413.308594 535.898438 413.453125 535.980469 413.558594 C 537.140625 414.992188 538.605469 416.117188 540 417.226562 C 541.398438 418.328125 542.785156 419.414062 543.835938 420.761719 C 544.371094 421.417969 544.835938 422.125 545.152344 422.882812 C 545.488281 423.644531 545.644531 424.484375 545.820312 425.339844 C 546.082031 426.738281 546.242188 428.285156 546.851562 429.691406 C 546.082031 429.03125 545.414062 428.304688 544.957031 427.542969 L 540.957031 420.855469 L 533.851562 419.136719 C 533.835938 419.117188 533.824219 419.097656 533.808594 419.082031 C 533.746094 419.011719 533.644531 418.972656 533.546875 419.003906 C 533.519531 419.015625 533.511719 419.039062 533.492188 419.050781 L 533.398438 419.03125 L 523.398438 426.769531 C 523.40625 426.710938 523.417969 426.65625 523.421875 426.601562 C 523.480469 426.078125 523.449219 425.550781 523.367188 425.03125 C 523.28125 424.511719 523.144531 424.003906 522.925781 423.523438 C 522.710938 423.046875 522.453125 422.585938 522.09375 422.191406 C 522.027344 422.125 521.921875 422.085938 521.824219 422.105469 C 521.664062 422.128906 521.554688 422.285156 521.585938 422.449219 C 521.664062 422.945312 521.78125 423.40625 521.867188 423.867188 C 521.953125 424.332031 522.058594 424.78125 522.132812 425.242188 C 522.226562 425.699219 522.285156 426.160156 522.363281 426.625 C 522.40625 426.902344 522.453125 427.1875 522.496094 427.46875 L 514.550781 433.621094 C 512.289062 435.367188 509.675781 436.542969 506.921875 437.140625 L 499.203125 437.140625 L 489.417969 435.789062 C 490.015625 435.253906 490.554688 434.628906 490.929688 433.894531 C 491.417969 432.996094 491.648438 431.9375 491.496094 430.949219 C 491.476562 430.828125 491.378906 430.726562 491.25 430.707031 C 491.09375 430.6875 490.949219 430.796875 490.925781 430.953125 C 490.792969 431.835938 490.480469 432.632812 490 433.335938 C 489.792969 433.625 489.554688 433.894531 489.308594 434.160156 C 489.292969 433.582031 489.21875 433.011719 489.082031 432.453125 C 488.824219 431.375 488.371094 430.34375 487.695312 429.492188 C 487.632812 429.40625 487.519531 429.371094 487.421875 429.414062 C 487.292969 429.460938 487.234375 429.597656 487.28125 429.726562 C 487.640625 430.691406 487.90625 431.660156 488.019531 432.644531 C 488.132812 433.628906 488.128906 434.617188 487.976562 435.578125 C 487.96875 435.609375 487.980469 435.640625 487.980469 435.675781 L 420.570312 435.191406 L 417.621094 437.140625 L 355.867188 437.140625 C 356.023438 437.5625 356.179688 437.980469 356.339844 438.398438 L 681.816406 438.398438 L 681.816406 437.140625 Z M 169.683594 437.140625 L 169.683594 438.398438 L 310.011719 438.398438 C 318.519531 438.398438 320.964844 437.140625 320.964844 437.140625 C 322.074219 436.84375 323.132812 436.441406 324.136719 435.949219 C 331.335938 432.421875 335.675781 424.21875 333.621094 415.765625 L 309.605469 316.917969 C 307.664062 308.933594 300.523438 303.320312 292.316406 303.320312 L 158.148438 303.320312 C 146.625 303.320312 138.140625 314.117188 140.859375 325.324219 L 164.875 424.167969 C 166.433594 430.589844 171.367188 435.46875 177.503906 437.140625 Z M 364.503906 456.742188 C 364.503906 456.742188 364.476562 456.972656 364.40625 457.371094 L 364.410156 457.371094 C 363.535156 462.613281 355.542969 500.21875 305.960938 500.21875 C 287.804688 500.21875 274.683594 497.21875 267.378906 494.957031 C 269.972656 509.808594 282.914062 521.097656 298.496094 521.097656 L 393.882812 521.097656 C 417.503906 521.097656 440.546875 511.253906 440.546875 511.253906 L 433.140625 555.171875 L 481.769531 555.171875 C 481.769531 555.171875 487.398438 511.253906 489.824219 481.789062 C 491.246094 464.535156 478.542969 459 467.769531 457.371094 L 555.257812 457.371094 L 549.574219 506.300781 L 567.558594 509.28125 L 573.585938 457.371094 L 638.332031 457.371094 L 645.863281 522.265625 L 664.550781 525.359375 L 656.664062 457.371094 L 681.816406 457.371094 L 681.816406 456.117188 L 364.183594 456.117188 C 364.386719 456.519531 364.503906 456.742188 364.503906 456.742188 Z M 255.867188 456.117188 L 169.683594 456.117188 L 169.683594 457.371094 L 211.148438 457.371094 C 211.109375 457.558594 211.128906 457.753906 211.074219 457.941406 L 210.90625 459.207031 C 210.777344 460.050781 210.734375 460.902344 210.652344 461.75 L 210.507812 464.304688 L 210.441406 465.582031 L 210.40625 466.222656 C 210.421875 466.4375 210.265625 466.636719 210.671875 466.894531 C 211.132812 466.734375 211.019531 466.507812 211.089844 466.300781 L 211.199219 465.667969 L 211.878906 461.894531 C 211.984375 461.042969 212.136719 460.207031 212.210938 459.359375 L 212.339844 458.085938 C 212.324219 457.847656 212.425781 457.617188 212.382812 457.371094 L 255.886719 457.371094 C 255.878906 456.953125 255.875 456.539062 255.867188 456.117188 Z M 469.058594 183.542969 C 469.058594 182.851562 468.496094 182.285156 467.804688 182.285156 L 449.117188 182.285156 C 448.425781 182.285156 447.859375 182.851562 447.859375 183.542969 C 447.859375 184.238281 448.425781 184.796875 449.117188 184.796875 L 467.804688 184.796875 C 468.496094 184.796875 469.058594 184.238281 469.058594 183.542969 Z M 419.46875 183.546875 C 419.339844 184.570312 420.066406 185.402344 421.089844 185.402344 C 422.113281 185.402344 423.050781 184.570312 423.179688 183.546875 C 423.3125 182.523438 422.585938 181.6875 421.554688 181.6875 C 420.535156 181.6875 419.601562 182.523438 419.46875 183.546875 Z M 414.066406 185.402344 C 413.042969 185.402344 412.3125 184.570312 412.441406 183.546875 C 412.570312 182.523438 413.507812 181.6875 414.53125 181.6875 C 415.554688 181.6875 416.28125 182.523438 416.152344 183.546875 C 416.027344 184.570312 415.089844 185.402344 414.066406 185.402344 " fill-opacity="1" fill-rule="nonzero"/></g><g clip-path="url(#id5)"><path fill="#777b85" d="M 589.8125 387.3125 L 579.703125 387.3125 L 572.328125 359.066406 L 566.136719 359.066406 L 573.511719 387.3125 L 467.765625 387.3125 C 462.425781 387.3125 458.097656 391.644531 458.097656 396.988281 L 599.484375 396.988281 C 599.484375 391.644531 595.15625 387.3125 589.8125 387.3125 Z M 247.820312 386.652344 L 226.984375 386.652344 C 225.652344 386.652344 224.523438 387.652344 224.371094 388.976562 L 207.503906 535.203125 C 207.328125 536.761719 208.546875 538.136719 210.117188 538.136719 L 230.957031 538.136719 C 232.289062 538.136719 233.414062 537.132812 233.570312 535.804688 L 250.433594 389.585938 C 250.613281 388.019531 249.394531 386.652344 247.820312 386.652344 Z M 558.390625 437.738281 L 566.847656 437.738281 L 586.097656 425.082031 L 597.285156 437.738281 L 603.527344 437.738281 L 588.046875 418.914062 Z M 674.632812 152.730469 L 666.347656 152.730469 C 675.566406 152.730469 682.734375 160.742188 681.71875 169.902344 L 662.28125 345.304688 C 661.414062 353.136719 654.796875 359.066406 646.914062 359.066406 L 655.195312 359.066406 C 663.074219 359.066406 669.699219 353.136719 670.566406 345.304688 L 690.003906 169.902344 C 691.015625 160.742188 683.84375 152.730469 674.632812 152.730469 Z M 469.058594 183.542969 C 469.058594 182.851562 468.496094 182.285156 467.804688 182.285156 L 449.117188 182.285156 C 448.425781 182.285156 447.859375 182.851562 447.859375 183.542969 C 447.859375 184.238281 448.425781 184.796875 449.117188 184.796875 L 467.804688 184.796875 C 468.496094 184.796875 469.058594 184.238281 469.058594 183.542969 Z M 421.554688 181.6875 C 420.535156 181.6875 419.601562 182.523438 419.46875 183.546875 C 419.339844 184.570312 420.066406 185.402344 421.089844 185.402344 C 422.113281 185.402344 423.050781 184.570312 423.179688 183.546875 C 423.3125 182.523438 422.585938 181.6875 421.554688 181.6875 Z M 414.53125 181.6875 C 413.507812 181.6875 412.570312 182.523438 412.441406 183.546875 C 412.3125 184.570312 413.042969 185.402344 414.066406 185.402344 C 415.089844 185.402344 416.027344 184.570312 416.152344 183.546875 C 416.28125 182.523438 415.554688 181.6875 414.53125 181.6875 Z M 430.207031 183.546875 C 430.082031 184.570312 429.144531 185.402344 428.121094 185.402344 C 427.097656 185.402344 426.371094 184.570312 426.496094 183.546875 C 426.625 182.523438 427.5625 181.6875 428.585938 181.6875 C 429.609375 181.6875 430.335938 182.523438 430.207031 183.546875 " fill-opacity="1" fill-rule="nonzero"/></g></svg>